<svg width="27" height="27" viewBox="0 0 27 27" fill="none" xmlns="http://www.w3.org/2000/svg">
<path d="M11.48 26.416C11.16 26.416 10.872 26.304 10.616 26.08C10.392 25.824 10.28 25.536 10.28 25.216V16.528H1.832C1.512 16.528 1.224 16.416 0.968 16.192C0.744 15.936 0.632 15.648 0.632 15.328V11.632C0.632 11.28 0.744 10.992 0.968 10.768C1.192 10.512 1.48 10.384 1.832 10.384H10.28V1.984C10.28 1.632 10.392 1.344 10.616 1.12C10.872 0.895999 11.16 0.783998 11.48 0.783998H15.608C15.96 0.783998 16.248 0.895999 16.472 1.12C16.728 1.344 16.856 1.632 16.856 1.984V10.384H25.208C25.56 10.384 25.848 10.512 26.072 10.768C26.328 10.992 26.456 11.28 26.456 11.632V15.328C26.456 15.68 26.328 15.968 26.072 16.192C25.848 16.416 25.56 16.528 25.208 16.528H16.856V25.216C16.856 25.568 16.728 25.856 16.472 26.08C16.248 26.304 15.96 26.416 15.608 26.416H11.48Z" fill="#5A17FF"/>
</svg>
