<svg width="62" height="70" viewBox="0 0 62 70" fill="none" xmlns="http://www.w3.org/2000/svg">
<path d="M60.9365 42.752C59.9446 38.2009 56.3271 32.7747 51.0176 27.5818C52.8263 26.6482 54.3433 25.3063 55.4519 23.5558C57.2023 20.8719 57.7275 17.5461 57.0273 14.162C56.0938 9.78598 53.1764 5.76004 48.9754 3.07608C41.2736 -1.88341 31.7047 -0.716471 27.5621 5.64334C26.4535 7.3354 25.87 9.26085 25.695 11.303C14.6091 7.04367 5.21523 7.16036 1.88946 12.2949C0.664173 14.162 0.372439 16.4375 0.955908 19.1215C2.12285 24.6061 7.08233 31.2576 14.259 37.3841C13.1504 38.2593 11.8668 38.9594 10.4665 39.4846C6.73225 40.8265 3.63987 43.5105 1.77277 47.0697C-1.6697 53.6045 0.0223577 61.7731 5.7987 66.4408C8.6577 68.7747 12.2169 70 15.8344 70C16.6512 70 17.4681 69.9417 18.2849 69.825C22.7193 69.1248 26.6286 66.5575 29.0791 62.8233C31.0046 59.8476 31.8798 56.3468 31.5297 52.846C31.413 51.3873 31.5297 49.987 31.8214 48.7034C38.7064 51.9125 45.1829 53.6045 50.2591 53.6045C54.7518 53.6045 58.1942 52.3209 59.9446 49.5786C61.1699 47.7698 61.52 45.4359 60.9365 42.752ZM32.8717 46.0194C33.2218 45.3776 33.6302 44.7358 34.1553 44.1523L34.7971 43.3938C36.4308 41.4684 37.131 38.9594 36.7809 36.5089C36.4308 34 34.9722 31.8411 32.8717 30.4408L30.5961 29.0405C28.4957 27.6985 25.87 27.2901 23.4778 27.9902C21.0856 28.6904 19.0435 30.3824 17.9932 32.658L17.7015 33.2998C17.3514 34.0583 16.8846 34.7585 16.3595 35.4003C9.59125 29.6823 4.86515 23.4392 3.81491 18.538C3.40648 16.6709 3.58152 15.0955 4.34003 13.8703C5.50697 12.0615 8.07423 11.128 11.6334 11.128C17.9349 11.128 27.3871 14.1036 37.5978 20.6385C48.392 27.5818 56.6189 36.6839 58.0775 43.2771C58.486 45.1442 58.3109 46.7196 57.5524 47.9449C54.9268 52.0292 45.0078 51.7958 32.8717 46.0194ZM28.6123 53.1377C28.9041 55.9967 28.2039 58.7974 26.6286 61.248C24.6448 64.282 21.4357 66.3825 17.8182 66.966C14.1423 67.5494 10.5248 66.5575 7.60746 64.2237C2.9397 60.4311 1.53938 53.7796 4.34003 48.47C5.85705 45.5526 8.36597 43.3938 11.4584 42.2852C15.4259 40.8849 18.5767 38.1426 20.3271 34.5251L20.6188 33.8833C21.319 32.3662 22.661 31.2576 24.2947 30.7909C24.8198 30.6158 25.3449 30.5575 25.9284 30.5575C27.037 30.5575 28.1456 30.8492 29.0791 31.491L31.2963 32.8914C32.6966 33.7666 33.6302 35.2836 33.9219 36.9173C34.1553 38.551 33.6885 40.2431 32.5799 41.5267L31.9381 42.2852C29.3709 45.2026 28.2039 49.0535 28.6123 53.1377ZM39.2315 18.1879C37.7728 17.2544 36.7226 15.8541 36.4308 14.3954C36.2558 13.6952 36.1974 12.645 36.8393 11.6531C37.5394 10.5445 38.8231 10.0194 40.2817 10.0194C41.4487 10.0194 42.674 10.3694 43.8409 11.128C45.2996 12.0615 46.3498 13.4618 46.6415 14.9205C46.8166 15.6207 46.8749 16.6709 46.2331 17.6628C44.9495 19.5883 41.7988 19.88 39.2315 18.1879ZM30.0127 7.27706C31.8798 4.41806 35.1472 2.95938 38.8814 2.95938C41.6821 2.95938 44.7161 3.83459 47.4584 5.585C50.9592 7.86053 53.4681 11.1863 54.2266 14.8038C54.8101 17.4878 54.4017 19.9383 53.0597 22.0388C52.0095 23.6142 50.5508 24.7811 48.8004 25.4813C47.4584 24.3144 46.0581 23.1474 44.5994 21.9805C46.2915 21.5721 47.8085 20.6385 48.742 19.1798C49.6756 17.7795 49.9673 15.9707 49.5589 14.2203C49.0921 12.0032 47.5751 9.96102 45.4746 8.56069C41.5654 6.05177 36.6059 6.69359 34.447 10.0194C33.5135 11.4197 33.2218 13.1701 33.5718 14.9205C31.9381 14.0453 30.2461 13.2284 28.6123 12.5283C28.554 10.6028 29.0208 8.85242 30.0127 7.27706Z" fill="#8A919D"/>
</svg>
