<svg width="70" height="46" viewBox="0 0 70 46" fill="none" xmlns="http://www.w3.org/2000/svg">
<path d="M68.2071 12.6653C65.5702 7.26816 59.9598 3.78768 51.1114 2.07605C51.0238 1.61913 50.7181 1.03588 49.8345 0.560688C49.2775 0.261907 48.6026 0.0672225 47.9331 0.0147769C47.2613 -0.0376686 46.5662 0.0505355 45.9766 0.262702C45.2706 0.516983 44.8804 0.884102 44.6671 1.23612C44.0279 1.20116 43.3964 1.18288 42.7796 1.18288C30.531 1.18288 24.2853 8.02941 21.2024 13.773C18.3925 19.008 17.6757 24.1858 17.5159 25.7441C15.8837 26.445 12.5665 27.7553 9.61936 28.9186C7.55581 29.7331 5.6063 30.5031 4.59625 30.9219C2.19136 31.9208 0.461394 33.6554 0.0812667 35.4513C-0.124312 36.4239 0.0634238 37.3592 0.607239 38.1363C0.708089 38.4844 0.890395 38.8014 1.15183 39.0629C2.26739 40.177 4.32318 39.8265 5.15558 39.6239L5.24246 39.5993C5.44494 39.5373 10.0639 38.0871 12.8287 36.4239C14.9792 37.3322 17.0846 38.7554 19.2645 40.2286C23.2954 42.9518 27.8057 46 33.3602 46C34.0429 46 34.7427 45.9531 35.4587 45.8554L35.5254 45.8435C47.57 43.5939 53.9763 37.4395 55.7544 35.4807C57.2012 35.5578 58.7644 35.607 60.2795 35.607C62.319 35.607 64 35.5196 65.2746 35.3472C67.3553 35.0667 68.3785 34.5661 68.8067 33.6149L68.92 33.3646L68.937 33.0889C69.0185 31.8278 69.1915 30.4427 69.3754 28.9766C70.027 23.7861 70.764 17.9003 68.2071 12.6653ZM48.6825 1.66046C48.629 1.65251 48.5739 1.64536 48.5211 1.63741C48.5522 1.6096 48.5863 1.58338 48.6243 1.56033L48.6825 1.66046ZM46.968 1.4165C46.9742 1.42207 46.9781 1.42763 46.9843 1.43319C46.975 1.4324 46.9657 1.43081 46.9556 1.43001L46.968 1.4165ZM4.43877 36.7378C4.19052 36.7958 3.95081 36.8316 3.7398 36.849C4.53031 35.5594 6.11055 35.3019 7.25093 35.3019C7.64813 35.3019 7.99179 35.3329 8.22995 35.3631C6.42784 36.0981 4.73046 36.6456 4.43877 36.7378ZM11.9948 36.1013C12.1274 36.149 12.2601 36.1974 12.3927 36.2491C12.257 36.2213 12.122 36.1712 11.9948 36.1013ZM35.0375 42.9097C29.597 43.6439 25.3551 40.7777 20.8641 37.7438C17.2025 35.2693 13.416 32.7114 9.02822 32.473C8.9553 32.4587 8.87927 32.446 8.8017 32.4333C9.39438 32.1989 10.0235 31.9509 10.6628 31.6975C13.8108 30.4555 17.3778 29.0466 18.9364 28.3616C19.3079 28.1987 19.5965 27.9675 19.8153 27.7092C19.8223 27.7092 19.8277 27.7092 19.8347 27.7092C25.6103 27.7092 49.8004 34.8204 50.0432 34.8919L50.1355 34.9157C50.5148 35.0007 51.1044 35.0889 51.8383 35.1716C49.0804 37.5626 43.6043 41.3022 35.0375 42.9097ZM66.4918 28.6C66.3367 29.842 66.1877 31.03 66.0908 32.1631C65.5012 32.3371 63.9628 32.6304 60.2795 32.6304C56.2152 32.6304 51.9942 32.2696 50.7996 32.0161C49.2961 31.5735 27.6335 25.2276 20.5818 24.758C20.9138 22.6832 21.747 18.9381 23.7492 15.2081C27.6839 7.87764 34.0864 4.16116 42.7789 4.16116C44.2102 4.16116 45.7221 4.26446 47.2737 4.46868C69.1535 7.34921 67.7393 18.6393 66.4918 28.6Z" fill="#8A919D"/>
</svg>
