<svg width="70" height="25" viewBox="0 0 70 25" fill="none" xmlns="http://www.w3.org/2000/svg">
<path d="M69.5763 2.43681C63.2087 0.819227 57.4204 0 52.3726 0C47.2575 0 43.9718 0.817621 41.7965 1.35762C41.1963 1.50766 40.6796 1.63604 40.2568 1.71147C37.2791 2.24745 35.7683 2.40071 35.5709 2.41997H34.4283C34.2309 2.40151 32.7209 2.24745 29.7432 1.71147C29.3204 1.63524 28.8029 1.50686 28.2035 1.35762C26.029 0.816819 22.7425 0 17.6274 0C12.5788 0 6.7913 0.819227 0.422852 2.43681L0 2.54433L0.101099 6.76001L0.11153 7.09941L0.41884 7.24384C0.49667 7.27915 2.32929 8.16176 2.84843 10.7013C3.02094 11.5454 4.57835 18.9906 6.1157 20.613C6.959 21.5037 9.5274 24.2141 16.4599 24.2141C17.4886 24.2141 18.5894 24.1555 19.732 24.0392C23.5489 23.6484 26.963 21.3632 29.6036 17.43C31.5743 14.4941 32.4159 11.7123 32.4513 11.5951L32.4705 11.5309L32.4729 11.4651C32.4777 11.36 32.6165 8.93284 34.4588 8.53326H35.542C37.3843 8.93284 37.5223 11.36 37.5271 11.4635L37.5303 11.5309L37.5495 11.5951C37.584 11.7123 38.4273 14.4941 40.3972 17.43C43.0378 21.3632 46.4511 23.6484 50.2688 24.0392C51.4106 24.1555 52.5114 24.2141 53.5409 24.2141C60.4726 24.2141 63.041 21.5037 63.8851 20.613C65.4224 18.9914 66.9791 11.5454 67.1516 10.7013C67.6707 8.16176 69.5041 7.27915 69.5788 7.24465L69.8909 7.10262L70 2.54433L69.5763 2.43681ZM68.8125 6.419C68.1385 6.83062 66.5819 8.02134 66.0796 10.4814C65.2724 14.4259 63.987 18.9136 63.0899 19.8596C62.5981 20.3787 61.6224 21.3985 59.6221 22.16C58.1898 22.7056 56.2361 23.1196 53.5393 23.1196C52.5475 23.1196 51.4836 23.0627 50.3787 22.9495C42.2426 22.1175 38.8831 12.1784 38.6135 11.3376C38.5742 10.8152 38.2412 7.94271 35.7001 7.44765L34.4026 7.43802L34.2983 7.44765C31.7572 7.94191 31.4242 10.816 31.3849 11.3376C31.1169 12.1793 27.7686 22.1175 19.6197 22.9503C18.5148 23.0635 17.4517 23.1204 16.4599 23.1204C9.99759 23.1204 7.75415 20.7518 6.90925 19.8604C6.0122 18.9136 4.72679 14.4267 3.9196 10.4822C3.41651 8.02295 1.8599 6.83142 1.18591 6.4198L1.11289 3.39164C7.22699 1.86713 12.7802 1.09444 17.6266 1.09444C22.6077 1.09444 25.8164 1.892 27.9387 2.41997C28.5573 2.57402 29.0909 2.70561 29.5483 2.78906C32.7939 3.37399 34.2927 3.50799 34.3553 3.512L35.5958 3.5144L35.6431 3.512C35.7049 3.50718 37.2045 3.37319 40.4493 2.78906C40.9067 2.70561 41.4411 2.57402 42.0597 2.41997C44.1828 1.8928 47.3915 1.09444 52.3718 1.09444C56.9638 1.09444 62.1969 1.79652 67.9331 3.16617C68.2508 3.2424 68.5637 3.3122 68.8847 3.39164L68.8125 6.419Z" fill="#8A919D"/>
<path d="M53.6057 2.5332C50.4813 2.5332 47.3335 2.97692 45.5868 3.35644C41.3743 4.27195 40.649 6.54428 40.5912 7.81684C40.5455 8.82382 41.1882 11.8953 41.2588 12.2283C42.8491 20.8394 49.3788 22.1256 53.1299 22.1256C55.9422 22.1256 58.4127 21.4372 59.6741 20.8474C63.4533 19.0806 63.5945 15.2982 63.852 8.43227C63.9026 7.07866 63.483 5.92966 62.6027 5.01575C61.0148 3.36847 57.9875 2.5332 53.6057 2.5332ZM59.2103 19.8573C58.822 20.0394 58.3165 20.2184 57.7436 20.3836C56.471 20.7495 54.8285 21.0328 53.1299 21.0328C48.9632 21.0328 43.7076 19.4713 42.3307 12.0165C42.1398 11.1114 41.6503 8.60156 41.684 7.86659C41.7603 6.18642 43.1901 4.9973 45.8195 4.4252C47.5125 4.05691 50.5687 3.62684 53.6065 3.62684C55.5715 3.62684 57.2501 3.80818 58.6157 4.154C60.0408 4.51507 61.124 5.05748 61.8156 5.7756C62.4912 6.47688 62.8001 7.33221 62.76 8.39295C62.4928 15.4916 62.2633 18.4299 59.2103 19.8573Z" fill="#8A919D"/>
<path d="M24.413 3.35644C22.6662 2.97611 19.5177 2.5332 16.3933 2.5332C12.0115 2.5332 8.98414 3.36848 7.39705 5.01655C6.51684 5.93046 6.0964 7.07946 6.14775 8.43307C6.40531 15.299 6.54653 19.0814 10.3257 20.8482C11.587 21.4372 14.0568 22.1264 16.8707 22.1264C16.8707 22.1264 16.8707 22.1264 16.8715 22.1264C20.6226 22.1264 27.1515 20.8394 28.7386 12.2435C28.8116 11.8961 29.4551 8.82462 29.4086 7.81764C29.35 6.54427 28.6239 4.27195 24.413 3.35644ZM27.6658 12.0301C26.6885 17.321 23.7486 19.6318 20.633 20.5297C19.3677 20.8948 18.0743 21.0328 16.8699 21.0328C14.405 21.0328 12.0388 20.4422 10.7879 19.8573C7.73565 18.4307 7.50617 15.4924 7.23978 8.39214C7.20046 7.33221 7.50858 6.47607 8.18418 5.7748C9.53778 4.36904 12.3766 3.62604 16.3925 3.62604C19.3364 3.62604 22.2859 4.02963 24.0078 4.3899C24.0624 4.40193 24.1274 4.41317 24.1795 4.4244C26.8081 4.99649 28.2387 6.18561 28.315 7.86659C28.3487 8.60076 27.86 11.1106 27.6658 12.0301Z" fill="#8A919D"/>
</svg>
