<svg width="70" height="70" viewBox="0 0 70 70" fill="none" xmlns="http://www.w3.org/2000/svg">
<path d="M50.731 26.8235C52.4846 26.8215 54.1833 26.2115 55.5377 25.0976C56.892 23.9836 57.8182 22.4346 58.1585 20.7145C58.4988 18.9943 58.232 17.2094 57.4037 15.6638C56.5755 14.1182 55.2369 12.9076 53.616 12.2381C51.9952 11.5687 50.1923 11.4819 48.5147 11.9926C46.837 12.5032 45.3883 13.5796 44.4153 15.0385C43.4424 16.4973 43.0054 18.2484 43.1788 19.9933C43.3522 21.7382 44.1253 23.369 45.3663 24.6079C46.0692 25.3141 46.9054 25.8736 47.8263 26.2539C48.7472 26.6343 49.7346 26.8279 50.731 26.8235ZM47.0224 15.5355C47.8815 14.6776 49.0115 14.144 50.22 14.0258C51.4284 13.9076 52.6405 14.2121 53.6496 14.8873C54.6587 15.5625 55.4025 16.5667 55.7541 17.7287C56.1057 18.8908 56.0435 20.1389 55.578 21.2602C55.1125 22.3815 54.2725 23.3067 53.2012 23.8782C52.1299 24.4497 50.8936 24.6321 49.7029 24.3942C48.5122 24.1564 47.4409 23.5131 46.6714 22.5739C45.9019 21.6348 45.4819 20.4579 45.4829 19.2438C45.4816 18.5546 45.617 17.872 45.8813 17.2355C46.1455 16.599 46.5333 16.0212 47.0224 15.5355Z" fill="#8A919D"/>
<path d="M7.73239 28.62L20.5609 29.1447C20.3393 29.5878 20.1177 30.031 19.9195 30.4857C19.821 30.7014 19.7906 30.9418 19.8322 31.1752C19.8739 31.4085 19.9857 31.6236 20.1527 31.7918L22.7651 34.4039L17.5753 38.1121C17.444 38.2156 17.3365 38.3461 17.2601 38.4948C17.1837 38.6435 17.1401 38.8069 17.1324 38.9739C17.1246 39.1409 17.1529 39.3076 17.2152 39.4627C17.2776 39.6178 17.3725 39.7577 17.4937 39.8729L30.1006 52.4786C30.2096 52.5867 30.3388 52.6722 30.4809 52.7302C30.623 52.7883 30.7752 52.8177 30.9286 52.8168H31.0219C31.1909 52.802 31.3547 52.7505 31.5017 52.6659C31.6487 52.5813 31.7755 52.4657 31.8733 52.327L35.5819 47.1378L38.1942 49.7499C38.3611 49.9189 38.5756 50.0328 38.809 50.0766C39.0424 50.1203 39.2836 50.0918 39.5004 49.9948L40.8182 49.3768L41.343 62.204C41.3377 62.4169 41.3908 62.6273 41.4966 62.8122C41.6024 62.9971 41.7568 63.1495 41.9431 63.2529C42.1294 63.3562 42.3404 63.4066 42.5533 63.3985C42.7662 63.3903 42.9728 63.3241 43.1507 63.2068C45.2863 62.015 47.2483 60.5358 48.9818 58.8106C51.7909 56.0099 53.9531 52.6287 55.317 48.904C56.6809 45.1793 57.2134 41.2014 56.8772 37.2492C65.7076 27.3465 70.3961 14.4304 69.9739 1.1697C69.9739 0.86043 69.851 0.563825 69.6323 0.345136C69.4136 0.126448 69.117 0.00359013 68.8077 0.00359013C55.7171 -0.369926 42.9679 4.21116 33.1095 12.8308L32.7246 13.1923C28.7721 12.8569 24.794 13.3897 21.0691 14.7534C17.3442 16.1172 13.9625 18.2788 11.1611 21.0869C9.4427 22.7916 7.96365 24.7217 6.76442 26.8242C6.66644 26.998 6.61474 27.1942 6.61426 27.3937C6.61378 27.5933 6.66453 27.7897 6.76166 27.964C6.8588 28.1384 6.99906 28.2849 7.16902 28.3895C7.33898 28.4942 7.53296 28.5534 7.73239 28.5617V28.62ZM30.7654 49.8782L20.0944 39.2083L24.4911 36.0714L33.9025 45.4819L30.7654 49.8782ZM47.2208 57.1431C46.1136 58.2545 44.903 59.258 43.6055 60.14L43.1507 48.1757C43.6872 47.8841 44.2003 47.546 44.7251 47.2311C45.2499 46.9163 45.5764 46.7413 45.9963 46.4731C46.6844 46.03 47.3608 45.5519 48.0255 45.0738C48.3637 44.8406 48.7019 44.619 49.0285 44.3741C50.0003 43.6512 50.945 42.8971 51.8624 42.1119H51.9207C52.8226 41.3345 53.7012 40.5221 54.5564 39.6747C54.5129 46.2374 51.876 52.5166 47.2208 57.1431ZM67.6415 2.33581C67.7443 14.8104 63.1239 26.8621 54.708 36.0714C54.1715 36.6661 53.6234 37.2375 53.0636 37.8089C49.6253 41.2601 45.6954 44.1837 41.4014 46.4848C40.7016 46.8696 40.0019 47.2311 39.3021 47.5576L22.4268 30.7073C22.7534 30.0076 23.1149 29.3196 23.4764 28.6316C24.5937 26.5449 25.8604 24.5418 27.2667 22.6378L27.4766 22.3463C28.1375 21.46 28.8294 20.5971 29.5525 19.7575L29.844 19.4193C30.5788 18.5681 31.3485 17.7402 32.1765 16.9472C32.9695 16.1542 33.8092 15.3729 34.6489 14.615C43.7732 6.62307 55.5118 2.25423 67.6415 2.33581ZM12.8288 22.7544C17.4652 18.1026 23.7541 15.4741 30.3222 15.4429L30.1239 15.6528C29.4398 16.3525 28.7789 17.0638 28.1414 17.7868L27.7099 18.2766C27.0023 19.1006 26.3259 19.9441 25.6806 20.807L25.5407 21.0053C24.8954 21.876 24.2773 22.7661 23.6864 23.6757L23.5581 23.8739C22.9283 24.8534 22.3297 25.8524 21.7621 26.8708L9.78494 26.381C10.681 25.0775 11.7003 23.863 12.8288 22.7544Z" fill="#8A919D"/>
<path d="M0.548129 69.7955C0.720245 69.9068 0.918674 69.9708 1.12342 69.9811C1.32816 69.9913 1.53199 69.9474 1.71436 69.8538C4.68667 68.5168 7.76927 67.44 10.9275 66.6353C12.1384 66.3578 13.3653 66.1553 14.6012 66.0289C17.68 65.6441 20.8521 65.236 22.7648 63.3235C24.2367 61.8574 25.2773 60.015 25.773 57.9975C26.2687 55.9801 26.2003 53.8652 25.5754 51.884C25.5085 51.6697 25.3811 51.4792 25.2086 51.3355C25.0361 51.1918 24.8257 51.1009 24.6028 51.0738C24.3799 51.0467 24.1539 51.0846 23.952 51.1828C23.7501 51.281 23.5808 51.4354 23.4645 51.6275C23.3154 51.8856 23.1352 52.1245 22.928 52.3388C22.2749 52.9918 20.6772 53.1667 19.2777 53.33C18.6046 53.3935 17.9352 53.4908 17.2718 53.6215C16.5413 53.7805 15.8239 53.9949 15.126 54.2629C15.3709 51.9306 16.0589 48.7238 17.68 47.1029C17.8944 46.8958 18.1333 46.7157 18.3914 46.5665C18.5835 46.4502 18.7379 46.281 18.8361 46.0791C18.9343 45.8772 18.9722 45.6512 18.9451 45.4283C18.918 45.2054 18.8271 44.9951 18.6834 44.8226C18.5397 44.6501 18.3492 44.5228 18.1348 44.4559C16.149 43.8188 14.0258 43.742 11.9991 44.2337C9.97235 44.7254 8.12055 45.7667 6.6475 47.2429C0.0699758 53.8197 2.33562e-06 68.1979 2.33562e-06 68.8043C-0.000394272 69.0024 0.0497257 69.1975 0.145631 69.3709C0.241535 69.5443 0.380061 69.6904 0.548129 69.7955ZM8.30354 48.8987C9.14026 48.0594 10.1345 47.3935 11.2292 46.9392C12.3239 46.485 13.4976 46.2513 14.6828 46.2517H15.2776C12.6536 49.75 12.6302 55.8838 12.6302 56.1636C12.6263 56.3783 12.6817 56.59 12.7903 56.7752C12.899 56.9604 13.0567 57.1121 13.2461 57.2134C13.4355 57.3147 13.6491 57.3617 13.8635 57.3493C14.078 57.3369 14.2848 57.2656 14.4612 57.1432C15.4633 56.5402 16.5653 56.1216 17.715 55.9071C18.2165 55.8021 18.8812 55.7322 19.4877 55.6622C20.9448 55.6003 22.3755 55.2515 23.6977 54.636C23.7869 55.9221 23.5987 57.2123 23.146 58.4194C22.6933 59.6265 21.9866 60.7223 21.0737 61.6327C19.7209 62.9854 16.9453 63.3352 14.263 63.6734C12.9286 63.8113 11.6042 64.0333 10.2978 64.3381C7.61217 65.0368 4.97482 65.9093 2.40243 66.9502C2.63567 62.9737 3.68528 53.5049 8.30354 48.8987Z" fill="#8A919D"/>
</svg>
