<svg width="65" height="66" viewBox="0 0 65 66" fill="none" xmlns="http://www.w3.org/2000/svg">
<path d="M56.3401 15.7588L57.7988 14.681C56.4936 12.9153 55.0019 11.278 53.3644 9.81445L52.1562 11.1669C53.7013 12.5474 55.1091 14.0925 56.3401 15.7588Z" fill="#8A919D"/>
<path fill-rule="evenodd" clip-rule="evenodd" d="M56.2983 16.0378L56.1794 15.8769C54.9566 14.2216 53.558 12.6866 52.0231 11.3152L51.874 11.182L53.3487 9.53125L53.4978 9.66456C55.1455 11.1372 56.6464 12.7846 57.9598 14.5614L58.0787 14.7222L56.2983 16.0378ZM57.7984 14.6795C57.759 14.6262 57.7194 14.5729 57.6796 14.5198C56.443 12.8686 55.043 11.332 53.5132 9.94743C53.4638 9.90269 53.4142 9.8581 53.3645 9.81368L52.1564 11.1661C53.7004 12.5456 55.1073 14.0896 56.3377 15.7546C56.3386 15.7557 56.3394 15.7569 56.3403 15.758L57.7984 14.6795C57.7983 14.6793 57.7986 14.6798 57.7984 14.6795Z" fill="#8A919D"/>
<path d="M60.4318 18.8888L58.8247 19.7283C61.0553 24.0005 62.2341 28.8243 62.2341 33.6777C62.2341 50.3196 48.696 63.8587 32.0544 63.8606C15.4132 63.8587 1.87484 50.3196 1.87484 33.6776C1.87484 28.8239 3.05381 24.0002 5.28455 19.7281L3.67738 18.8887C1.3121 23.419 0.0615234 28.5327 0.0615234 33.6776C0.0615234 51.318 14.4111 65.6701 32.0505 65.6737C32.0507 65.6737 32.0513 65.6737 32.0515 65.6737C32.0543 65.674 32.0559 65.674 32.0577 65.6737C32.058 65.6737 32.0582 65.6737 32.0585 65.6737C49.6982 65.6702 64.0472 51.318 64.0472 33.6776C64.047 28.5331 62.797 23.4194 60.4318 18.8888Z" fill="#8A919D"/>
<path d="M11.9521 11.1661L10.744 9.81445C9.10569 11.2788 7.61402 12.9159 6.30957 14.6808L7.76801 15.7586C8.99861 14.0928 10.4062 12.5479 11.9521 11.1661Z" fill="#8A919D"/>
<path fill-rule="evenodd" clip-rule="evenodd" d="M12.235 11.1811L12.0858 11.3144C10.5501 12.6871 9.15175 14.2218 7.92929 15.8766L7.81044 16.0375L6.03027 14.7219L6.14916 14.5611C7.46174 12.7852 8.96265 11.138 10.6111 9.66453L10.7603 9.53125L12.235 11.1811ZM10.7436 9.81438C10.6942 9.85856 10.6449 9.9029 10.5957 9.9474C9.06527 11.3326 7.66528 12.8691 6.42938 14.5195C6.38941 14.5729 6.34962 14.6263 6.31 14.68L7.76843 15.7578C7.77045 15.755 7.77247 15.7523 7.77449 15.7495C9.00365 14.0869 10.4091 12.5448 11.9525 11.1653C11.9525 11.1653 11.9525 11.1653 11.9525 11.1653L10.7444 9.81365C10.7442 9.81389 10.7439 9.81413 10.7436 9.81438Z" fill="#8A919D"/>
<path d="M24.3521 13.5918H22.5391V25.7834H24.3521V13.5918Z" fill="#8A919D"/>
<path fill-rule="evenodd" clip-rule="evenodd" d="M22.3389 13.3926H24.5519V25.9841H22.3389V13.3926ZM24.3519 13.5926V25.7841H22.5389V13.5926H24.3519Z" fill="#8A919D"/>
<path d="M41.9996 13.5918H40.1865V25.7834H41.9996V13.5918Z" fill="#8A919D"/>
<path fill-rule="evenodd" clip-rule="evenodd" d="M39.9863 13.3926H42.1994V25.9841H39.9863V13.3926ZM41.9994 13.5926V25.7841H40.1863V13.5926H41.9994Z" fill="#8A919D"/>
<path d="M39.2778 11.7337H40.1383V11.6883H42.0424V11.7337H42.9069C43.2683 11.7337 43.5952 11.5189 43.7392 11.1869C43.8824 10.8551 43.8148 10.4699 43.5672 10.2063L41.7896 8.31494C41.6205 8.13507 41.3852 8.03219 41.1383 8.0293C41.1353 8.0293 41.1318 8.0293 41.1291 8.0293C40.8854 8.0293 40.6517 8.12731 40.4813 8.3018L38.63 10.1929C38.3747 10.4536 38.3005 10.8421 38.4419 11.1786C38.5833 11.5151 38.9127 11.7337 39.2778 11.7337Z" fill="#8A919D"/>
<path d="M33.3092 5.98047H31.4961V25.7757H33.3092V5.98047Z" fill="#8A919D"/>
<path fill-rule="evenodd" clip-rule="evenodd" d="M31.2959 5.7793H33.509V25.9746H31.2959V5.7793ZM33.309 5.9793V25.7746H31.4959V5.9793H33.309Z" fill="#8A919D"/>
<path d="M40.4853 45.5147C39.1783 44.2077 37.6226 43.2402 35.9253 42.6545C37.7432 41.4024 38.9375 39.3069 38.9375 36.9375C38.9375 33.1122 35.8253 30 32 30C28.1747 30 25.0625 33.1122 25.0625 36.9375C25.0625 39.3069 26.2568 41.4024 28.0748 42.6545C26.3774 43.2402 24.8218 44.2077 23.5147 45.5147C21.2482 47.7812 20 50.7947 20 54H21.875C21.875 48.417 26.417 43.875 32 43.875C37.583 43.875 42.125 48.417 42.125 54H44C44 50.7947 42.7518 47.7812 40.4853 45.5147ZM32 42C29.2085 42 26.9375 39.729 26.9375 36.9375C26.9375 34.146 29.2085 31.875 32 31.875C34.7915 31.875 37.0625 34.146 37.0625 36.9375C37.0625 39.729 34.7915 42 32 42Z" fill="#8A919D"/>
<path d="M30.5882 4.11027H31.4484V4.07611H33.3523V4.11027H34.2173C34.5789 4.11027 34.9058 3.89545 35.0496 3.56343C35.1931 3.23167 35.1253 2.84617 34.8776 2.58286L33.0997 0.691893C32.9306 0.511756 32.6953 0.408878 32.4484 0.40625C32.4454 0.40625 32.4423 0.40625 32.4392 0.40625C32.1955 0.40625 31.9619 0.504267 31.7915 0.678491L29.9405 2.56959C29.6852 2.83053 29.6112 3.21879 29.7523 3.55528C29.8938 3.89164 30.2232 4.11027 30.5882 4.11027Z" fill="#8A919D"/>
<path d="M21.5892 12.1103H22.4494V12.0761H24.3533V12.1103H25.2183C25.5799 12.1103 25.9068 11.8955 26.0505 11.5634C26.194 11.2317 26.1262 10.8462 25.8786 10.5829L24.1007 8.69189C23.9316 8.51176 23.6963 8.40888 23.4494 8.40625C23.4464 8.40625 23.4432 8.40625 23.4402 8.40625C23.1965 8.40625 22.9629 8.50427 22.7925 8.67849L20.9414 10.5696C20.6862 10.8305 20.6122 11.2188 20.7533 11.5553C20.8948 11.8916 21.2242 12.1103 21.5892 12.1103Z" fill="#8A919D"/>
</svg>
