<svg width="70" height="36" viewBox="0 0 70 36" fill="none" xmlns="http://www.w3.org/2000/svg">
<path d="M69.1711 0H6.74355C6.28402 0 5.91287 0.380478 5.91287 0.849524V2.97695H3.83174C3.37222 2.97695 3.00106 3.35743 3.00106 3.82648V6.04519H0.830682C0.371156 6.04519 0 6.42566 0 6.89471V35.1505C0 35.6204 0.37204 36 0.830682 36H63.2573C63.7169 36 64.088 35.6195 64.088 35.1505V32.9318H66.2584C66.7179 32.9318 67.0891 32.5513 67.0891 32.0822V29.9548H69.1693C69.6288 29.9548 70 29.5743 70 29.1053V0.849524C70.0018 0.380478 69.6297 0 69.1711 0ZM62.4266 34.3019H1.66225V7.74605H62.4266V34.3019ZM65.4277 31.2336H64.088V6.89652C64.088 6.42657 63.716 6.047 63.2573 6.047H4.66242V4.67781H65.4277V31.2336ZM68.3395 28.2558H67.09V3.82738C67.09 3.35743 66.7179 2.97786 66.2593 2.97786H7.57511V1.69995H68.3404V28.2558H68.3395Z" fill="#8A919D"/>
<path d="M56.063 33H7.93879C7.60342 33 7.30212 32.792 7.17636 32.4743C6.51174 30.7882 5.17988 29.4405 3.52139 28.7755C3.20698 28.6488 3 28.3391 3 27.9936V14.0064C3 13.6609 3.20698 13.3512 3.52139 13.2245C5.17901 12.5604 6.51086 11.2118 7.17636 9.52572C7.30124 9.20886 7.60255 9 7.93792 9H56.0621C56.3974 9 56.6988 9.20797 56.8236 9.52572C57.4891 11.2118 58.8201 12.5595 60.4786 13.2245C60.793 13.3512 61 13.6609 61 14.0064V27.9945C61 28.34 60.7939 28.6497 60.4786 28.7764C58.821 29.4405 57.4883 30.7891 56.8236 32.4752C56.6996 32.792 56.3983 33 56.063 33ZM8.47241 31.3211H55.5293C56.3354 29.6288 57.6926 28.2534 59.3572 27.4438V14.5562C57.6935 13.7466 56.3354 12.3721 55.5293 10.6789H8.47241C7.66631 12.3712 6.30825 13.7466 4.64452 14.5562V27.4438C6.30825 28.2543 7.66631 29.6297 8.47241 31.3211Z" fill="#8A919D"/>
<path d="M32.0004 30C27.038 30 23 25.9631 23 21C23 16.0369 27.0371 12 32.0004 12C36.9629 12 41 16.0369 41 21C41 25.9631 36.962 30 32.0004 30ZM32.0004 13.6743C27.9424 13.6743 24.6405 16.9604 24.6405 21C24.6405 25.0396 27.9424 28.3257 32.0004 28.3257C36.0585 28.3257 39.3595 25.0396 39.3595 21C39.3595 16.9604 36.0576 13.6743 32.0004 13.6743Z" fill="#8A919D"/>
<path d="M31.6446 24.7308C29.7482 24.5824 29.4062 23.5661 29.4062 22.3891V22.1496H30.9827C30.9827 22.7779 31.0402 23.3717 31.6455 23.5202V21.2129L31.0746 21.007C29.9665 20.6076 29.5096 19.8415 29.5096 18.8138C29.5096 17.4202 30.2979 16.632 31.6455 16.4835V15.6953H32.3763V16.4835C34.0552 16.6205 34.4891 17.6261 34.4891 18.6423V18.8023H32.9126C32.9012 18.22 32.7642 17.8197 32.3763 17.6942V19.853L33.2785 20.2188C34.1233 20.5723 34.6835 21.0185 34.6835 22.2857C34.6835 23.9302 33.8838 24.6274 32.3763 24.7299V25.7241H31.6455V24.7308H31.6446ZM31.6446 17.6951C31.3017 17.7976 31.0852 18.0839 31.0852 18.5628C31.0852 18.9737 31.2567 19.2936 31.6446 19.5225V17.6951ZM32.3763 23.5202C32.8446 23.4177 33.039 23.0289 33.039 22.6065C33.039 22.0356 32.8101 21.7272 32.3763 21.4984V23.5202Z" fill="#8A919D"/>
</svg>
