<svg width="70" height="70" viewBox="0 0 70 70" fill="none" xmlns="http://www.w3.org/2000/svg">
<path d="M57.0519 0.506515L57.1579 0.400553L57.0519 0.506523L69.4934 12.9462L69.5994 12.8401L69.4934 12.9462C69.7217 13.1744 69.85 13.484 69.85 13.8068V65.8984C69.85 68.0772 68.0772 69.85 65.8984 69.85H15.5859C13.4072 69.85 11.6344 68.0772 11.6344 65.8984V42.3672C11.6344 41.6951 12.1794 41.15 12.8516 41.15C13.5237 41.15 14.0688 41.6951 14.0688 42.3672V65.8984C14.0688 66.7351 14.7492 67.4156 15.5859 67.4156H65.8984C66.7351 67.4156 67.4156 66.7351 67.4156 65.8984V15.1758V15.0258H67.2656H58.9258C56.747 15.0258 54.9742 13.253 54.9742 11.0742V2.73438V2.58437H54.8242H15.5859C14.7492 2.58437 14.0688 3.26485 14.0688 4.10156V5.88123V6.06736L14.2506 6.0278C15.4786 5.76071 16.7525 5.61875 18.0593 5.61875C18.7314 5.61875 19.2765 6.16382 19.2765 6.83594V23.5281C19.2765 24.2002 18.7314 24.7453 18.0593 24.7453H1.36719C0.695069 24.7453 0.15 24.2002 0.15 23.5281C0.15 15.9527 4.87819 9.46047 11.5392 6.84761L11.6344 6.81026V6.70797V4.10156C11.6344 1.9228 13.4072 0.15 15.5859 0.15H56.1914C56.5142 0.15 56.8237 0.278282 57.0519 0.506515ZM16.842 8.26369V8.09978L16.6787 8.11428C9.24447 8.77436 3.30547 14.7132 2.64539 22.1476L2.6309 22.3109H2.7948H16.692H16.842V22.1609V8.26369ZM57.6647 4.5615L57.4086 4.30548V4.66758V11.0742C57.4086 11.9109 58.0891 12.5914 58.9258 12.5914H65.3335H65.6957L65.4396 12.3353L57.6647 4.5615Z" fill="#8A919D" stroke="white" stroke-width="0.3"/>
<path d="M21.5895 27.2072H21.7395V27.0572V11.7324C21.7395 11.0603 22.2845 10.5152 22.9566 10.5152C32.8317 10.5152 40.866 18.5493 40.866 28.4244C40.866 38.2995 32.8317 46.3337 22.9566 46.3337C13.0816 46.3337 5.04746 38.2995 5.04746 28.4244C5.04746 27.7523 5.59253 27.2072 6.26465 27.2072H21.5895ZM24.3371 13.0108L24.1738 12.9963V13.1602V25.1237V25.4859L24.4299 25.2298L32.884 16.7758L32.9999 16.6599L32.8742 16.5547C30.5185 14.5831 27.5693 13.2977 24.3371 13.0108ZM7.6924 29.6416H7.5285L7.54299 29.8049C8.24337 37.6939 14.8888 43.8994 22.9566 43.8994C31.4897 43.8994 38.4316 36.9574 38.4316 28.4244C38.4316 24.654 37.0758 21.1941 34.8269 18.5067L34.7217 18.381L34.6058 18.4969L23.8207 29.2818C23.8195 29.283 23.8182 29.2842 23.817 29.2854C23.5965 29.5057 23.2926 29.6416 22.9566 29.6416H7.6924ZM23.8466 29.2624L23.8455 29.2631C23.846 29.2628 23.847 29.2622 23.847 29.2622L23.8466 29.2624Z" fill="#8A919D" stroke="white" stroke-width="0.3"/>
<path d="M56.222 48.9546L56.2936 48.883L56.254 48.7899C56.053 48.3165 55.9415 47.7963 55.9415 47.25C55.9415 45.0712 57.7143 43.2984 59.8931 43.2984C62.0718 43.2984 63.8447 45.0712 63.8447 47.25C63.8447 49.4288 62.0718 51.2016 59.8931 51.2016C59.2214 51.2016 58.5887 51.0327 58.0344 50.7359L57.9362 50.6833L57.8575 50.7621L50.0543 58.5653L49.9797 58.6399L50.0247 58.7354C50.2653 59.2453 50.4004 59.8144 50.4004 60.4148C50.4004 62.5935 48.6276 64.3663 46.4489 64.3663C44.2701 64.3663 42.4973 62.5935 42.4973 60.4148C42.4973 59.7994 42.6387 59.2169 42.8905 58.6974L42.9371 58.6014L42.8616 58.5259L37.7785 53.4428L37.6976 53.3619L37.5982 53.4186C37.0221 53.7471 36.3568 53.9358 35.6475 53.9358C35.0195 53.9358 34.4259 53.7879 33.8982 53.5261L33.8016 53.4782L33.7254 53.5544L28.7366 58.5433L28.6613 58.6185L28.7074 58.7143C28.9558 59.2309 29.0951 59.8095 29.0951 60.4204C29.0951 62.5991 27.3223 64.372 25.1436 64.372C22.9648 64.372 21.192 62.5991 21.192 60.4204C21.192 58.2416 22.9648 56.4688 25.1436 56.4688C25.7514 56.4688 26.3274 56.607 26.8421 56.8532L26.9378 56.899L27.0129 56.824L32.0298 51.8071L32.1038 51.733L32.0598 51.638C31.8267 51.1345 31.6957 50.5746 31.6957 49.9842C31.6957 47.8055 33.4685 46.0327 35.6472 46.0327C37.826 46.0327 39.5988 47.8055 39.5988 49.9842C39.5988 50.4913 39.5019 50.9758 39.3272 51.4215L39.2914 51.5129L39.3608 51.5823L44.5914 56.8129L44.6662 56.8877L44.7617 56.8424C45.2737 56.5997 45.8454 56.4632 46.4489 56.4632C47.067 56.4632 47.6521 56.6061 48.1735 56.8601L48.2696 56.907L48.3452 56.8314L56.222 48.9546ZM26.1979 59.3323L26.198 59.3322L26.1932 59.3276C25.9209 59.0659 25.5512 58.9033 25.1434 58.9033C24.3067 58.9033 23.6262 59.5838 23.6262 60.4205C23.6262 61.2572 24.3067 61.9377 25.1434 61.9377C25.9801 61.9377 26.6606 61.2571 26.6606 60.4205C26.6606 60.0112 26.4969 59.64 26.2333 59.3673L26.2334 59.3672L26.2281 59.3622L26.2193 59.3542L26.2134 59.3491C26.2124 59.3483 26.2118 59.3477 26.2113 59.3473C26.2111 59.347 26.2107 59.3465 26.2101 59.3459L26.2055 59.3406L26.1979 59.3323ZM34.1301 49.9842C34.1301 50.8209 34.8105 51.5014 35.6472 51.5014C36.484 51.5014 37.1644 50.8209 37.1644 49.9842C37.1644 49.1475 36.484 48.467 35.6472 48.467C34.8105 48.467 34.1301 49.1475 34.1301 49.9842ZM44.9314 60.4148C44.9314 61.2515 45.6119 61.932 46.4486 61.932C47.2853 61.932 47.9658 61.2515 47.9658 60.4148C47.9658 59.5781 47.2853 58.8976 46.4486 58.8976C45.6119 58.8976 44.9314 59.5781 44.9314 60.4148ZM58.3756 47.2499C58.3756 48.0866 59.0561 48.767 59.8928 48.767C60.7295 48.767 61.41 48.0866 61.41 47.2499C61.41 46.4132 60.7295 45.7327 59.8928 45.7327C59.0563 45.7327 58.3756 46.4131 58.3756 47.2499Z" fill="#8A919D" stroke="white" stroke-width="0.3"/>
<path d="M45.8438 32.15H53.0596C53.7317 32.15 54.2768 32.6951 54.2768 33.3672C54.2768 34.0393 53.7317 34.5844 53.0596 34.5844H45.8438C45.1715 34.5844 44.6266 34.0393 44.6266 33.3672C44.6266 32.6951 45.1716 32.15 45.8438 32.15Z" fill="#8A919D" stroke="white" stroke-width="0.3"/>
<path d="M45.8438 19.1539H62.5445C63.2166 19.1539 63.7617 19.699 63.7617 20.3711C63.7617 21.0432 63.2166 21.5883 62.5445 21.5883H45.8438C45.1715 21.5883 44.6266 21.0432 44.6266 20.3711C44.6266 19.699 45.1716 19.1539 45.8438 19.1539Z" fill="#8A919D" stroke="white" stroke-width="0.3"/>
<path d="M45.8438 25.7164H62.5445C63.2166 25.7164 63.7617 26.2615 63.7617 26.9336C63.7617 27.6057 63.2166 28.1508 62.5445 28.1508H45.8438C45.1715 28.1508 44.6266 27.6057 44.6266 26.9336C44.6266 26.2615 45.1716 25.7164 45.8438 25.7164Z" fill="#8A919D" stroke="white" stroke-width="0.3"/>
<path d="M45.8438 32.15H62.5445C63.2166 32.15 63.7617 32.6951 63.7617 33.3672C63.7617 34.0393 63.2166 34.5844 62.5445 34.5844H45.8438C45.1715 34.5844 44.6266 34.0393 44.6266 33.3672C44.6266 32.6951 45.1716 32.15 45.8438 32.15Z" fill="#8A919D" stroke="white" stroke-width="0.3"/>
</svg>
