<svg width="48" height="54" viewBox="0 0 48 54" fill="none" xmlns="http://www.w3.org/2000/svg">
<path d="M47.622 29.6575C47.622 25.063 39.5669 22.5945 32.0197 22.5236V19.5827C35.6338 18.4016 38.1968 16.4646 38.1968 13.8661V7.08661C38.1968 2.45669 30.0472 0 22.3819 0C14.7165 0 6.56691 2.50394 6.56691 7.08661V13.2756C2.64565 14.5984 0.37793 16.6417 0.37793 18.9921V25.7717C0.37793 30.3661 8.37399 32.8583 15.9685 32.8583V36.4016C15.9778 37.0565 16.1524 37.6984 16.4764 38.2677C16.1505 38.8363 15.9757 39.4786 15.9685 40.1339V46.9134C15.9685 51.5433 24.1181 54 31.7834 54C39.4488 54 47.622 51.5669 47.622 46.937V40.1575C47.6142 39.5024 47.4394 38.86 47.1141 38.2913C47.4323 37.7325 47.6068 37.1034 47.622 36.4606V29.6575ZM45.2008 29.6102C45.2008 31.5472 40.1338 34.4291 31.7952 34.4291C28.2159 34.5238 24.6562 33.8721 21.3425 32.5157C27.1181 31.6535 31.9724 29.3622 31.9724 25.7598V24.8858C40.1693 24.8858 45.2008 27.6732 45.2008 29.6102ZM40.0984 35.7756V40.122C39.3057 40.35 38.5014 40.5353 37.6889 40.6772L37.7362 40.6654V36.2835C38.5393 36.1417 39.3307 35.9764 40.0984 35.7756ZM35.374 36.6142V41.0197C34.6299 41.0905 33.7913 41.185 32.9763 41.185L33.0118 41.1614V36.7677C33.7913 36.7677 34.5827 36.685 35.374 36.6142ZM30.6496 36.7677V41.185C29.7992 41.185 29.0197 41.0905 28.2756 41.0197L28.2874 41.0079V36.6142C29.0551 36.685 29.8346 36.7441 30.6496 36.7677ZM25.9252 36.3071V40.689C25.1284 40.5413 24.34 40.3521 23.563 40.122V40.1102V35.7992C24.3071 36 25.0866 36.1654 25.9252 36.3071ZM22.0748 30.0236V25.6299C22.9015 25.4882 23.6811 25.3228 24.437 25.122V29.4567C23.66 29.6867 22.8716 29.876 22.0748 30.0236ZM29.6929 22.878V25.7835C29.6929 26.6693 28.6771 27.7087 26.8346 28.5827V24.3661C27.8337 23.9842 28.7818 23.4805 29.6575 22.8661L29.6929 22.878ZM28.2874 18.1299V13.7244C29.0787 13.5827 29.9055 13.4173 30.6141 13.2165H30.6496V17.563C29.8726 17.793 29.0842 17.9823 28.2874 18.1299ZM35.811 13.8661C35.811 14.752 34.8071 15.7913 32.9527 16.6654V12.4606C33.9642 12.0813 34.9243 11.5775 35.811 10.9606V13.8661ZM22.3819 2.31496C30.7086 2.31496 35.8346 5.09055 35.8346 7.03937C35.8346 8.98819 30.7204 11.7638 22.3819 11.7638C14.0433 11.7638 8.92911 8.98819 8.92911 7.03937C8.92911 5.09055 14.0551 2.31496 22.3819 2.31496ZM25.9252 14.0315V18.437C25.1811 18.5197 24.4016 18.5669 23.563 18.5905V14.1968C24.3425 14.1732 25.1811 14.1142 25.9134 14.0197L25.9252 14.0315ZM21.2008 14.1968V18.5905C20.3858 18.5905 19.6063 18.5079 18.8386 18.437V14.0197C19.6259 14.1063 20.4134 14.1654 21.2008 14.1968ZM16.4764 13.7222V18.1063C15.6797 17.9585 14.8912 17.7692 14.1141 17.5394V13.2165C14.9015 13.4163 15.7235 13.5809 16.4764 13.7222ZM8.9173 10.9488C9.80401 11.5656 10.7641 12.0695 11.7756 12.4488V16.6535C9.93305 15.7677 8.9173 14.7402 8.9173 13.8543V10.9488ZM2.74013 25.7598V22.8661C3.62685 23.483 4.58694 23.9869 5.5984 24.3661L5.61021 28.5709C3.76769 27.685 2.74013 26.6457 2.74013 25.7598ZM10.3346 30.0236C9.53782 29.876 8.74944 29.6867 7.97242 29.4567V25.122C8.72832 25.3228 9.50785 25.4882 10.3346 25.6299V30.0236ZM15.059 30.5197C14.2441 30.5197 13.4645 30.437 12.6968 30.3661V25.937C13.4764 26.0197 14.2559 26.0669 15.059 26.0905V30.5197ZM16.2401 23.7756C7.91336 23.7756 2.78738 21 2.78738 19.0512C2.78738 17.8701 4.42911 16.5945 7.03935 15.6732C8.79919 19.2165 15.7913 21.0591 22.3937 21.0591C24.5896 21.0586 26.7807 20.849 28.937 20.4331C27.248 22.063 22.7126 23.7638 16.2047 23.7638L16.2401 23.7756ZM17.3504 30.5079V26.1024C18.1417 26.1024 18.9212 26.0197 19.7126 25.9488V30.3543C18.9685 30.437 18.189 30.4842 17.3504 30.5079ZM21.2008 35.0315H21.1653V39.2362C19.3228 38.3504 18.3071 37.3228 18.3071 36.437V33.5197C19.2043 34.1433 20.1765 34.6512 21.2008 35.0315ZM21.1653 49.7362C19.3228 48.8504 18.3071 47.8228 18.3071 46.937V44.0315C19.1938 44.6483 20.1539 45.1522 21.1653 45.5315V49.7362ZM25.8897 51.189C25.0929 51.0413 24.3046 50.8521 23.5275 50.622V46.2874C24.2834 46.4882 25.063 46.6535 25.8897 46.7953V51.189ZM30.6141 51.685C29.7992 51.685 29.0197 51.6024 28.2519 51.5315V47.0905C29.0315 47.1732 29.811 47.2205 30.6141 47.2441V51.685ZM18.3661 40.311C21.3425 42.437 26.6338 43.5591 31.7952 43.5591C36.9567 43.5591 42.248 42.378 45.2244 40.311C44.9764 42.2835 39.9212 44.9291 31.7952 44.9291C23.6693 44.9291 18.626 42.2953 18.3661 40.311ZM35.374 51.5079C34.6299 51.5787 33.8504 51.6378 33.0118 51.6614V47.2677C33.7913 47.2677 34.5827 47.185 35.374 47.1142V51.5079ZM40.0984 50.6102C39.3215 50.8405 38.533 51.0298 37.7362 51.1772V46.7953C38.5393 46.6535 39.3307 46.4882 40.0984 46.2874V50.6102ZM45.2598 46.937C45.2598 47.8228 44.2441 48.8622 42.4015 49.7362V45.5315C43.413 45.1522 44.3731 44.6483 45.2598 44.0315V46.937ZM45.2598 36.4606C45.2598 37.3465 44.2441 38.3858 42.4015 39.2598V35.0315C43.4136 34.6485 44.3737 34.1406 45.2598 33.5197V36.4606Z" fill="#8A919D"/>
</svg>
