<svg width="70" height="53" viewBox="0 0 70 53" fill="none" xmlns="http://www.w3.org/2000/svg">
<path d="M69.4492 41.516H55.7446L55.8016 41.269C55.8018 41.2685 55.8019 41.2681 55.802 41.2676C55.8251 41.1696 55.8477 41.0552 55.8682 40.9511C55.8793 40.8945 55.8899 40.8409 55.8996 40.7947L55.8996 40.7947L55.9005 40.7902C55.9067 40.7592 55.9134 40.7268 55.9203 40.6931C55.9463 40.566 55.9758 40.422 55.9988 40.2764L56.0899 39.7525L56.0911 39.7453L56.0922 39.7382L56.1718 39.1877C56.1928 39.0591 56.2093 38.912 56.2238 38.7815C56.2313 38.7144 56.2383 38.6517 56.2452 38.5982L56.2452 38.5982L56.2457 38.5942C56.2562 38.5072 56.2667 38.4196 56.2771 38.332L56.2811 38.2985L56.282 38.2906L56.2827 38.2826L56.3087 37.9849L56.3089 37.9836L56.3299 37.7513C56.3339 37.7454 56.3376 37.7395 56.3412 37.7334C56.3456 37.7082 56.3495 37.674 56.3501 37.6653C56.3508 37.6542 56.351 37.6453 56.351 37.645L56.351 37.6447L56.3519 37.6251L56.352 37.6233L56.3601 37.4309C56.3601 37.4309 56.3601 37.4308 56.3601 37.4308C56.3637 37.3475 56.3673 37.2641 56.3708 37.1806C56.3783 37.0066 56.3858 36.8321 56.3931 36.6577L56.4013 36.466L56.4014 36.466L56.4016 36.4554L56.4043 36.3254L56.4044 36.3223L56.4114 36.062L56.4115 36.0584L56.4205 35.7985L56.4206 35.7956L56.4258 35.6655L56.4263 35.6527L56.4261 35.6399L56.4244 35.4897L56.4244 35.4862C56.4225 35.3811 56.4214 35.2724 56.4203 35.1617C56.4175 34.8713 56.4146 34.5674 56.3955 34.2785C56.3921 34.2116 56.3889 34.1388 56.3857 34.0642C56.3806 33.9454 56.3752 33.8218 56.3682 33.7089L56.3684 33.7089L56.3675 33.6986L56.323 33.1613C56.3069 32.904 56.276 32.6474 56.2487 32.4208C56.2372 32.3248 56.2263 32.2342 56.2174 32.1511L56.2174 32.1511L56.2169 32.1472L56.1912 31.9214L56.1913 31.9214L56.1902 31.9129C56.1833 31.8603 56.1738 31.8001 56.166 31.7505C56.1624 31.7274 56.1591 31.7066 56.1566 31.6899L56.1564 31.6882L56.0959 31.2914L56.0956 31.2899C56.0901 31.2547 56.0843 31.2148 56.0782 31.1732C56.0663 31.092 56.0534 31.004 56.04 30.9295L56.0401 30.9295L56.0391 30.9244L55.9836 30.6322L55.9833 30.631L55.9625 30.5189L67.5505 27.2166L67.6626 27.5647L67.663 27.566L67.7982 27.9899C67.8284 28.0877 67.8566 28.1876 67.888 28.2984C67.9046 28.3572 67.9221 28.4189 67.9411 28.4851C67.9413 28.4856 67.9414 28.486 67.9415 28.4865L68.1038 29.0604L68.1045 29.0627L68.1893 29.3681L68.2691 29.6895C68.2692 29.69 68.2693 29.6905 68.2695 29.691C68.2973 29.8058 68.3258 29.9207 68.3545 30.0364C68.442 30.3891 68.5313 30.7488 68.607 31.1317L68.6069 31.1317L68.608 31.137L68.7749 31.9369C68.8103 32.1227 68.8426 32.3094 68.8761 32.5035C68.8912 32.5907 68.9065 32.6795 68.9225 32.7702L68.9225 32.7702L68.9234 32.7752C69.009 33.2342 69.0733 33.7073 69.1408 34.2033C69.1554 34.3106 69.1701 34.419 69.1853 34.5286C69.1853 34.529 69.1854 34.5295 69.1855 34.5299L69.2146 34.7494L69.2389 34.9893L69.2391 34.9911L69.288 35.4884L69.2882 35.4902L69.3355 35.9904L69.3357 35.9922L69.3582 36.24L69.3732 36.4314L69.3732 36.4317L69.4331 37.2024L69.4331 37.2028L69.4479 37.3943L69.4479 37.3945L69.4489 37.4078L69.4502 37.5215L69.4503 37.5288L69.4506 37.5361L69.4511 37.5494L69.4511 37.5506L69.4533 37.6073L69.4533 37.6074L69.4577 37.7223L69.4577 37.7231L69.4745 38.1831L69.4746 38.1839L69.4903 38.6356L69.4951 39.0823C69.4954 39.1886 69.4966 39.2897 69.4977 39.3878C69.5 39.5845 69.5021 39.7689 69.4968 39.9579H69.4967L69.4967 39.9623L69.4803 40.8213L69.4492 41.516ZM55.8428 30.553L55.8429 30.553C55.8428 30.553 55.8429 30.553 55.8428 30.553Z" stroke="#8A919D"/>
<path d="M49.0807 17.0393L48.8306 16.7749C48.7747 16.7158 48.7081 16.6507 48.6575 16.6013C48.6352 16.5795 48.616 16.5608 48.6023 16.547L48.5998 16.5445L48.5054 16.4512L54.6938 8.96044L54.9685 9.17122C55.0113 9.20475 55.0515 9.2355 55.091 9.2657C55.1606 9.31898 55.2279 9.37052 55.3038 9.43245C55.304 9.43258 55.3042 9.43272 55.3043 9.43286L55.7015 9.75858L55.7024 9.75932L56.1495 10.1277L56.6327 10.5502C56.697 10.6075 56.7584 10.661 56.8184 10.7134C56.9308 10.8113 57.0381 10.905 57.1502 11.0106L57.1513 11.0117L57.7056 11.5305L57.7056 11.5306L57.7093 11.5339C57.8736 11.6848 58.0354 11.8465 58.2099 12.0208C58.2289 12.0398 58.248 12.0589 58.2673 12.0782C58.3374 12.1491 58.4053 12.2166 58.472 12.2829C58.5996 12.4097 58.7227 12.532 58.8475 12.6644C58.8476 12.6645 58.8477 12.6646 58.8478 12.6647L59.441 13.2965L59.441 13.2965L59.4437 13.2994C59.538 13.3982 59.6309 13.5019 59.7258 13.6108L59.7275 13.6127L60.0225 13.9477L60.0232 13.9484L60.3191 14.2856C60.3193 14.2858 60.3195 14.286 60.3197 14.2863C60.3806 14.3561 60.4357 14.4231 60.4957 14.4961C60.5289 14.5364 60.5635 14.5786 60.6015 14.6241C60.6617 14.6974 60.7212 14.7693 60.78 14.8405C60.913 15.0013 61.043 15.1585 61.1716 15.3201L61.727 16.0391L61.7279 16.0402L61.8617 16.2145L61.9906 16.392L61.9911 16.3928L62.2556 16.7585L62.2555 16.7585L62.2591 16.7634C62.5173 17.1119 62.753 17.4638 62.9917 17.8201C63.0752 17.9447 63.159 18.0698 63.2442 18.1955L63.6889 18.9016L63.69 18.9035L63.9025 19.2439L64.101 19.5821L64.1016 19.5831L64.4858 20.2415C64.5667 20.3862 64.6428 20.5267 64.7187 20.6669C64.7539 20.7318 64.7891 20.7967 64.8247 20.862C64.8249 20.8623 64.825 20.8627 64.8252 20.863L64.9837 21.1555C64.984 21.1561 64.9843 21.1567 64.9846 21.1573C65.0061 21.1977 65.0245 21.2315 65.0413 21.2623C65.0733 21.321 65.0994 21.369 65.1295 21.4311L65.1295 21.4311L65.1318 21.4357L65.4175 22.0107L65.4185 22.0127L65.6662 22.5171C65.7254 22.642 65.78 22.7569 65.8294 22.8607C65.8294 22.8607 65.8294 22.8608 65.8295 22.8608L65.9057 23.0218L55.1618 27.3384L55.105 27.1681L55.1048 27.1677L54.9889 26.8216L54.9889 26.8216L54.9865 26.8147L54.8837 26.5226L54.8823 26.5187L54.7699 26.19C54.7509 26.1301 54.7183 26.0484 54.6993 26.0008C54.6937 25.9867 54.6892 25.9757 54.6867 25.969L54.6867 25.969L54.6849 25.9642L54.6008 25.7497L54.6005 25.7491L54.422 25.293L54.4189 25.2853L54.4157 25.2777L54.2093 24.7973L54.2086 24.7955L54.1017 24.5443L54.0983 24.5362L54.0945 24.5283L53.9761 24.2748L53.9757 24.274L53.7308 23.7478L53.726 23.7376L53.7208 23.7276C53.6661 23.6227 53.6089 23.5088 53.5492 23.3901C53.4265 23.1461 53.2936 22.8819 53.1522 22.6341L53.0048 22.3646L53.0042 22.3634L52.9296 22.2263L52.9251 22.2181L52.9204 22.2101L52.8408 22.0758L52.8401 22.0747L52.5188 21.5298L52.5189 21.5298L52.5148 21.5231C52.4481 21.414 52.3737 21.2975 52.3028 21.1865C52.2572 21.115 52.213 21.0457 52.1733 20.9823L52.1733 20.9823L52.17 20.9771C52.1561 20.9555 52.1394 20.9288 52.1209 20.8994C52.0817 20.8368 52.0349 20.7623 51.9924 20.6998L51.9922 20.6996L51.8156 20.441L51.8148 20.4397L51.6413 20.1843C51.5828 20.0965 51.5194 20.004 51.4506 19.9127L51.0961 19.4261C51.0961 19.426 51.096 19.4259 51.0959 19.4258C51.0185 19.3192 50.9287 19.2051 50.8483 19.103C50.8049 19.0478 50.7643 18.9962 50.7299 18.9512L50.7299 18.9511L50.7273 18.9478C50.7093 18.9248 50.6911 18.9012 50.6726 18.8772C50.5757 18.7522 50.471 18.617 50.3626 18.4912L50.0253 18.0857C49.9506 17.9942 49.8611 17.8948 49.786 17.8112C49.7484 17.7694 49.7143 17.7316 49.6875 17.7007L49.6875 17.7007L49.6839 17.6966L49.3782 17.3524L49.3727 17.3462L49.3669 17.3401L49.0818 17.0404L49.0807 17.0393ZM65.968 23.1534C65.9679 23.1533 65.9679 23.1532 65.9678 23.1531L65.9679 23.1534L65.968 23.1534Z" stroke="#8A919D"/>
<path d="M35.398 9.96112C35.2585 9.93194 35.1244 9.9007 34.9948 9.87918C34.8458 9.85354 34.7043 9.8293 34.5714 9.80645C34.4382 9.78324 34.3135 9.76151 34.1983 9.74147C34.0823 9.72562 33.9759 9.71111 33.8797 9.69799C33.7747 9.68362 33.6821 9.67087 33.6026 9.65997C33.4161 9.6344 33.2805 9.47068 33.2895 9.28263L33.655 1.65066C33.6644 1.45525 33.8263 1.30236 34.0219 1.30471C34.1453 1.30619 34.2991 1.30803 34.4804 1.31024C34.6092 1.3123 34.7519 1.31459 34.9071 1.31709C35.0622 1.32446 35.2301 1.33235 35.4095 1.34082C35.5891 1.34966 35.7802 1.35909 35.9817 1.36897C36.1835 1.37855 36.3943 1.40087 36.6154 1.41782C36.8363 1.43676 37.0666 1.4565 37.3049 1.47691C37.5425 1.50513 37.7883 1.53439 38.0409 1.56438C38.1674 1.5797 38.2956 1.59525 38.4254 1.61094C38.5552 1.62716 38.6854 1.64978 38.8178 1.66945C39.0109 1.69959 39.208 1.73039 39.4067 1.76141" stroke="#8A919D"/>
<path d="M39.2354 1.72461C39.3026 1.7501 46.3022 3.65962 46.3689 3.6849C46.6322 3.78386 46.8842 3.896 47.1348 3.99857C47.3843 4.10335 47.6301 4.20319 47.863 4.31313C48.0974 4.42063 48.3256 4.52519 48.5463 4.62629C48.768 4.72613 48.9747 4.83614 49.1774 4.93502C49.3792 5.03619 49.5725 5.13308 49.7565 5.22526C49.9496 5.33056 50.1328 5.43033 50.305 5.52412C50.477 5.61896 50.6381 5.7076 50.787 5.78968C50.8513 5.82608 50.913 5.86101 50.972 5.89439C51.0262 5.92548 51.0778 5.95503 51.1268 5.98318C51.2335 6.04441 51.3278 6.09849 51.4085 6.14477C51.5901 6.24888 51.6459 6.48415 51.5309 6.65908L46.2971 14.6314C46.1823 14.8063 45.9443 14.8486 45.7766 14.7235C45.702 14.6679 45.6149 14.6029 45.5162 14.5293C45.4711 14.4955 45.4234 14.4599 45.3734 14.4226C45.3248 14.3865 45.2653 14.3414 45.2293 14.3166C45.1461 14.257 45.0561 14.1926 44.9601 14.1238C44.8641 14.0539 44.762 13.9796 44.6543 13.9013C44.5315 13.8198 44.4026 13.7343 44.2677 13.6449C44.1519 13.5699 35.3475 9.98454 35.2227 9.90614" stroke="#8A919D"/>
<path d="M30.1376 9.44142L30.4624 9.43965L30.1376 9.44142ZM30.1376 9.44142L29.7673 9.44385L30.1376 9.44142ZM26.787 9.16278L26.7841 9.16319L26.1653 9.24865L26.1567 9.24983L26.1482 9.25131L25.5109 9.36193L25.5109 9.36192L25.5078 9.36248C25.4782 9.3678 25.4434 9.37373 25.4061 9.3801C25.3321 9.39273 25.2478 9.4071 25.1732 9.42201L25.1731 9.42197L25.1672 9.42323L24.8417 9.49232L24.8407 9.49252L24.514 9.5613L24.5119 9.56174L24.5039 9.56338C24.3998 9.58483 24.2801 9.60949 24.16 9.6413L23.5013 9.80424L23.5013 9.80423L23.4978 9.80514C23.3538 9.84189 23.2007 9.88604 23.0573 9.92738C22.9772 9.95046 22.9002 9.97266 22.8296 9.9922L22.8296 9.99217L22.8242 9.99371C22.7912 10.0032 22.7543 10.0136 22.7155 10.0245C22.6423 10.0451 22.5625 10.0676 22.4898 10.0896L22.4898 10.0895L22.4811 10.0924L22.1593 10.1964L22.1587 10.1966L21.8397 10.2993C21.8394 10.2994 21.8392 10.2995 21.8389 10.2996C21.829 10.3027 21.819 10.3059 21.8087 10.3092C21.7154 10.3389 21.6078 10.3732 21.502 10.4132L20.8919 10.6331C20.8914 10.6332 20.8909 10.6334 20.8904 10.6336C20.7528 10.6822 20.6049 10.7422 20.4732 10.7955C20.4053 10.8231 20.3416 10.8488 20.2861 10.8704L20.2861 10.8703L20.2806 10.8725C20.2431 10.8876 20.2043 10.9029 20.1646 10.9187C20.0144 10.9782 19.8516 11.0427 19.6982 11.1132L19.175 11.3428C19.0558 11.3936 18.9262 11.4567 18.8164 11.5101C18.7625 11.5364 18.7134 11.5603 18.6726 11.5793L18.6726 11.5793L18.6676 11.5816L18.2176 11.7974L18.2098 11.8012L18.2021 11.8052L17.8036 12.0135L17.8029 12.0139L17.4517 12.1968C17.4517 12.1968 17.4517 12.1968 17.4517 12.1968C17.4516 12.1968 17.4514 12.1969 17.4513 12.197C17.3734 12.2376 17.2882 12.2862 17.2218 12.3241C17.1921 12.3411 17.1661 12.356 17.1462 12.3669L17.1462 12.3669L17.1427 12.3689L16.9849 12.4579L14.1442 8.28155L14.3825 8.10565C14.4253 8.0746 14.4639 8.04593 14.5014 8.01808C14.5667 7.96953 14.6287 7.92348 14.7037 7.87175L15.1021 7.59744L15.1027 7.597L15.3231 7.44574L15.5508 7.28948L16.0577 6.96451C16.1308 6.91868 16.1978 6.87548 16.2625 6.83372C16.377 6.75985 16.4844 6.69051 16.6066 6.61921L16.6067 6.61922L16.6098 6.61734L17.2245 6.2527L17.2245 6.25273L17.2298 6.24948C17.3896 6.15201 17.5559 6.06088 17.7377 5.96131C17.7799 5.93822 17.8229 5.91467 17.8668 5.89049C17.9543 5.84341 18.0361 5.79815 18.1157 5.75414C18.2605 5.67406 18.3977 5.59814 18.5477 5.52297L18.5489 5.52234L19.2798 5.15335L19.2798 5.15338L19.2848 5.15075C19.3876 5.09741 19.4938 5.04828 19.6132 4.99308C19.6225 4.98882 19.6317 4.98453 19.6411 4.98019L19.6413 4.98009L20.0241 4.80281L20.0245 4.80263L20.4074 4.62585C20.4889 4.58981 20.568 4.55653 20.6518 4.5213C20.6962 4.5026 20.742 4.48335 20.7901 4.46284C20.8837 4.42385 20.9738 4.38563 21.062 4.34816C21.2347 4.27488 21.4005 4.20445 21.5733 4.13677L22.3791 3.82918L22.3791 3.82921L22.3843 3.82717C22.5054 3.77938 22.6302 3.73669 22.7672 3.69009L22.7684 3.68967L23.173 3.55101L23.1735 3.55084L23.5731 3.41453C23.6554 3.38748 23.7333 3.36393 23.817 3.33864C23.8633 3.32464 23.9113 3.31011 23.9629 3.29415C23.9635 3.29397 23.9641 3.29378 23.9647 3.2936L24.746 3.05807L25.509 2.85477C25.5096 2.85462 25.5102 2.85446 25.5108 2.85431C25.5631 2.84076 25.61 2.8282 25.6542 2.81636C25.7306 2.79588 25.7989 2.77757 25.8734 2.76011C25.8737 2.76004 25.874 2.75998 25.8743 2.75991L26.2411 2.67557L26.242 2.67535L26.9436 2.51557L27.6031 2.38812L27.6042 2.3879L27.9174 2.32811C27.9176 2.32807 27.9178 2.32804 27.9179 2.32801C27.9391 2.32402 27.9591 2.32019 27.9783 2.31652C28.0606 2.3008 28.1282 2.2879 28.2024 2.27744L28.2024 2.27747L28.208 2.27662L28.798 2.18673L28.8 2.18644L29.3148 2.11012L29.6841 2.06309L29.6845 2.06304L29.8618 2.04066L30.314 8.94045L30.1349 8.94143L30.1343 8.94143L29.764 8.94386V8.94371L29.7515 8.9441L29.4005 8.95522L29.3979 8.9553L29.0024 8.96561C28.9292 8.96605 28.8466 8.97194 28.7842 8.97639C28.7707 8.97736 28.7581 8.97825 28.7467 8.97901L28.7459 8.97907L28.4995 8.9959L28.499 8.99593L27.9735 9.03118L27.9643 9.03179L27.9551 9.03275L27.3946 9.09094L27.3939 9.09101L27.1016 9.12072L27.0994 9.12095C27.028 9.12849 26.9444 9.14048 26.8743 9.15054C26.8414 9.15527 26.8114 9.15958 26.787 9.16278ZM14.0379 8.36007L14.0379 8.36005L14.0379 8.36007ZM30.0063 2.02242C30.0063 2.02242 30.0063 2.02242 30.0063 2.02242L30.0063 2.02242Z" stroke="#8A919D"/>
<path d="M6.90603 15.6205L6.90604 15.6205L6.90777 15.618C6.98333 15.5097 7.05662 15.4077 7.1316 15.3109L7.13163 15.3109L7.1353 15.306L7.61375 14.6729C7.61381 14.6728 7.61388 14.6727 7.61394 14.6726C7.71328 14.5416 7.81102 14.4213 7.91331 14.2955C7.96898 14.227 8.02599 14.1568 8.08535 14.0824C8.10424 14.059 8.12291 14.0358 8.14138 14.0129C8.28057 13.8402 8.4087 13.6813 8.54039 13.5323L8.54041 13.5323L8.54429 13.5278L9.00135 12.998L9.00136 12.998L9.00283 12.9962C9.09339 12.8903 9.17933 12.7976 9.2704 12.6995C9.32191 12.6439 9.37505 12.5867 9.4316 12.5242L9.83386 12.0885L10.2244 11.6923L10.2255 11.6912L10.5755 11.338L10.5755 11.338L10.5778 11.3357C10.6131 11.2996 10.6394 11.2743 10.6702 11.2447C10.6836 11.2319 10.6978 11.2182 10.714 11.2026C10.7142 11.2023 10.7145 11.2021 10.7147 11.2018L10.8415 11.0797L10.842 11.0793L10.9708 10.9553L13.9459 14.4407L13.8033 14.5483L13.8028 14.5487L13.6602 14.6563L13.6591 14.6571C13.6511 14.6632 13.641 14.6708 13.6296 14.6793C13.5916 14.7078 13.5391 14.7473 13.4986 14.7805L13.2033 15.0157L13.2026 15.0163L12.8613 15.2865L12.8543 15.2921L12.8474 15.2979L12.4609 15.6271L12.4609 15.6271L12.4571 15.6304C12.4207 15.662 12.3773 15.6987 12.3303 15.7383C12.2351 15.8186 12.1251 15.9114 12.0281 16.001C12.0276 16.0014 12.0272 16.0018 12.0267 16.0022L11.5932 16.3967C11.4537 16.5199 11.3174 16.6528 11.1889 16.778C11.1667 16.7997 11.1447 16.8211 11.123 16.8422L11.123 16.8422L11.1203 16.8448C11.0742 16.8903 11.0221 16.9405 10.967 16.9935C10.8621 17.0946 10.7466 17.2057 10.6428 17.3133C10.6428 17.3133 10.6427 17.3133 10.6427 17.3133L10.1728 17.8C10.084 17.8896 10.0004 17.9809 9.92156 18.0694C9.92113 18.0699 9.92071 18.0704 9.92028 18.0709L9.68761 18.328L9.68744 18.3282L9.44987 18.5903L9.44944 18.5908C9.39226 18.654 9.33096 18.7268 9.27764 18.7902C9.25268 18.8198 9.22947 18.8474 9.20925 18.871L9.20923 18.8709L9.20587 18.8749C9.1541 18.9365 9.0991 19.001 9.04277 19.0671C8.94223 19.185 8.83742 19.308 8.73907 19.428L8.73903 19.428L8.73441 19.4338L8.28769 19.9961L8.28747 19.9964L8.17613 20.1364L8.17095 20.1429L8.16598 20.1496L8.05972 20.2928L8.05951 20.2931L7.8497 20.5755C7.6437 20.8437 7.44885 21.126 7.26604 21.3909C7.18662 21.5059 7.10948 21.6177 7.03468 21.7236L7.02884 21.7319L7.02335 21.7403L6.66115 22.2996L6.66065 22.3003L6.48528 22.5717L6.48103 22.5783L6.47699 22.585L6.31438 22.8549L6.3141 22.8554L6.00112 23.3738L5.99708 23.3805L5.99324 23.3873L5.7155 23.8813L5.71549 23.8813L5.71363 23.8846C5.68674 23.9333 5.65712 23.9858 5.62661 24.0399C5.56847 24.1429 5.50706 24.2517 5.45495 24.3512L5.45394 24.3532L5.23731 24.7714L5.2373 24.7714L5.04596 25.1403L5.04253 25.1469L5.0393 25.1536L4.88655 25.4712L4.88602 25.4723L4.79603 25.6605L2.25763 24.6873L2.34324 24.4332L2.34387 24.4313L2.46876 24.0652L2.62902 23.6356L2.62925 23.6349L2.81449 23.14C2.81463 23.1396 2.81476 23.1392 2.8149 23.1389C2.85546 23.032 2.89813 22.929 2.94508 22.8156C2.9722 22.7501 3.00074 22.6812 3.03112 22.6061L3.27283 22.022L3.55085 21.4026L3.55104 21.4021L3.69517 21.0819L3.85189 20.759L3.85248 20.7578L4.18157 20.0845C4.2532 19.9506 4.32288 19.8179 4.39213 19.686C4.56481 19.357 4.73478 19.0333 4.92555 18.7092L4.92559 18.7092L4.92878 18.7037L5.1317 18.3484L5.13174 18.3483L5.23012 18.1762L5.33339 18.0074L5.3338 18.0067L5.76523 17.3043C5.8613 17.1529 5.95816 17.0065 6.05788 16.8558C6.10861 16.7791 6.16008 16.7013 6.21257 16.6211C6.24441 16.5735 6.27271 16.5303 6.29953 16.4894C6.34531 16.4196 6.38674 16.3564 6.43402 16.2889C6.43416 16.2887 6.4343 16.2885 6.43444 16.2883L6.67034 15.9539L6.67063 15.9535L6.90603 15.6205ZM14.0402 14.5511C14.0401 14.551 14.04 14.551 14.04 14.5509L14.0401 14.5511L14.0402 14.5511Z" stroke="#8A919D"/>
<path d="M2.20653 37.0118C2.2305 37.0113 2.26037 37.0137 2.29218 37.0182C2.23781 37.0187 2.18047 37.0239 2.12817 37.0328C2.15668 37.0233 2.18397 37.0158 2.20653 37.0118ZM1.83531 36.5027L1.77585 37.2481L1.77584 37.2483L1.76227 37.4177C1.76095 37.4261 1.76009 37.4331 1.75955 37.4377L1.75823 37.4506L1.75754 37.459L1.75689 37.4695L1.75661 37.4758L1.75638 37.4829L1.75635 37.4846L1.75425 37.5303L1.75423 37.5307L1.74975 37.6263L1.74974 37.6267L1.732 38.0085L1.73199 38.0088L1.71431 38.3877L1.71416 38.3877L1.71389 38.4001L1.706 38.7585L1.706 38.7588L1.6982 39.1129L1.69819 39.1132L1.69428 39.2892L1.69409 39.2892L1.69417 39.303L1.69528 39.4797L1.69528 39.4799L1.69948 40.1728L1.6993 40.1728L1.69974 40.1861L1.72139 40.8473C1.7256 41.037 1.73714 41.2229 1.74768 41.3928C1.74978 41.4266 1.75184 41.4598 1.75379 41.4922L1.75379 41.4922L1.75398 41.4952C1.75443 41.502 1.75488 41.5089 1.75532 41.5157H1.03513C1.03251 41.5014 1.0299 41.4872 1.0273 41.4731C0.994491 41.2945 0.962759 41.1218 0.937078 40.9434L0.937101 40.9434L0.936375 40.9387L0.830587 40.2515L0.739002 39.5312L0.738942 39.5307L0.716234 39.3512L0.697939 39.1677L0.697894 39.1673L0.659955 38.782L0.659922 38.7817L0.622523 38.3969L0.595023 38.024L0.566872 37.6422L0.5598 37.5466L0.559798 37.5465L0.556904 37.5073L0.554738 37.4517L0.554692 37.4506L0.546521 37.2522L0.546513 37.252L0.514077 36.4547L0.51403 36.4535L0.506719 36.2624L0.505519 36.0705L0.505517 36.0702L0.503161 35.6706L0.503159 35.6703L0.500952 35.272L0.50095 35.2716L0.500033 35.0813L0.505131 34.8935C0.505143 34.8932 0.505154 34.8928 0.505165 34.8924C0.508883 34.7743 0.512116 34.658 0.515304 34.5432C0.52664 34.1353 0.537415 33.7476 0.567478 33.3684L0.56751 33.3684L0.567897 33.3627C0.574115 33.271 0.579662 33.1826 0.585083 33.0962C0.595027 32.9378 0.604545 32.7862 0.616992 32.6331L0.686775 31.9295L0.686824 31.9295L0.687416 31.9225C0.714945 31.5994 0.756426 31.2974 0.79776 30.9964C0.813603 30.8811 0.829424 30.7659 0.844431 30.6497L0.883614 30.3605C0.892336 30.3033 0.901427 30.2508 0.911254 30.1941C0.917052 30.1606 0.923105 30.1256 0.929491 30.0873L1.02002 29.5606C1.03081 29.4994 1.04069 29.4418 1.05007 29.3871C1.0674 29.286 1.08301 29.1949 1.09947 29.1103L1.17352 28.7458L1.17357 28.7455L1.20923 28.57L3.38403 29.15L3.32766 29.3199L3.32752 29.3203L3.2096 29.6753L3.20958 29.6753L3.20834 29.6791C3.18055 29.7652 3.15324 29.8578 3.127 29.9468C3.11324 29.9935 3.09977 30.0392 3.08668 30.0824L3.08667 30.0824L3.08609 30.0844L2.95274 30.5307L2.95274 30.5307L2.95224 30.5324C2.94603 30.5535 2.9386 30.5781 2.93056 30.6047C2.91388 30.6598 2.89458 30.7237 2.87814 30.7827L2.87807 30.7827L2.87587 30.7912L2.80781 31.0535L2.8078 31.0535L2.80699 31.0567C2.78342 31.1501 2.7573 31.2493 2.72998 31.3531C2.65882 31.6234 2.57947 31.9249 2.51547 32.2343L2.37371 32.8689L2.37363 32.8689L2.3718 32.8778C2.34245 33.0214 2.31452 33.1727 2.2873 33.3202C2.27264 33.3996 2.25819 33.4779 2.24384 33.5532C2.17029 33.915 2.11403 34.2924 2.05913 34.6606C2.0426 34.7715 2.02619 34.8815 2.00946 34.9901L2.00946 34.9901L2.00912 34.9923L1.98193 35.1744L1.98067 35.1829L1.9797 35.1914L1.95872 35.3745L1.9587 35.3747L1.91637 35.7429L1.91634 35.7431L1.87365 36.1131L1.87364 36.1132L1.8522 36.299L1.85124 36.3073L1.85055 36.3157L1.83537 36.5019L1.83531 36.5027ZM3.42996 29.0116L3.42987 29.0119L3.42996 29.0116Z" stroke="#8A919D"/>
<path d="M41.7377 47.032L41.7377 47.032C42.4236 46.2443 42.8926 45.3381 43.1467 44.3896C43.783 42.0151 43.0725 39.3747 41.0905 37.6486C40.7049 37.3126 40.2686 37.0201 39.8475 36.7931L39.842 36.7902L17.3562 24.8473L8.79291 20.299L8.79289 20.299L3.48816 17.4814L3.48815 17.4814C2.88365 17.1603 2.2346 17.1833 1.70656 17.4573C1.20784 17.716 0.847401 18.1807 0.706575 18.7062C0.531439 19.3599 0.699097 20.1097 1.31293 20.6445L1.31305 20.6446L6.02495 24.7483L6.68171 23.9942L6.02495 24.7483L12.976 30.8022L32.3542 47.6793C35.1241 50.0917 39.3253 49.8019 41.7377 47.032ZM34.9274 41.9703C35.1804 41.0263 36.1507 40.466 37.0948 40.719C38.0387 40.9719 38.599 41.9423 38.3461 42.8863C38.0932 43.8303 37.1227 44.3906 36.1787 44.1377C35.2346 43.8847 34.6745 42.9144 34.9274 41.9703Z" fill="#8A919D" stroke="white" stroke-width="2"/>
</svg>
