<svg width="70" height="51" viewBox="0 0 70 51" fill="none" xmlns="http://www.w3.org/2000/svg">
<path d="M69.4492 46.514H55.7446L55.8016 46.267C55.8018 46.2666 55.8019 46.2661 55.802 46.2657C55.8251 46.1677 55.8477 46.0533 55.8682 45.9491C55.8793 45.8925 55.8899 45.8389 55.8996 45.7927L55.8996 45.7927L55.9005 45.7882C55.9067 45.7572 55.9134 45.7248 55.9203 45.6912C55.9463 45.564 55.9758 45.4201 55.9988 45.2745L56.0899 44.7505L56.0911 44.7434L56.0922 44.7362L56.1718 44.1858C56.1928 44.0572 56.2093 43.91 56.2238 43.7796C56.2313 43.7124 56.2383 43.6497 56.2452 43.5962L56.2452 43.5962L56.2457 43.5923C56.2562 43.5053 56.2667 43.4177 56.2771 43.3301L56.2811 43.2966L56.282 43.2886L56.2827 43.2806L56.3087 42.983L56.3089 42.9817L56.3299 42.7493C56.3339 42.7435 56.3376 42.7375 56.3412 42.7314C56.3456 42.7062 56.3495 42.6721 56.3501 42.6633C56.3508 42.6523 56.351 42.6434 56.351 42.6431L56.351 42.6428L56.3519 42.6231L56.352 42.6214L56.3601 42.4289C56.3601 42.4289 56.3601 42.4289 56.3601 42.4288C56.3637 42.3456 56.3673 42.2621 56.3708 42.1786C56.3783 42.0046 56.3858 41.8302 56.3931 41.6558L56.4013 41.464L56.4014 41.4641L56.4016 41.4534L56.4043 41.3234L56.4044 41.3203L56.4114 41.0601L56.4115 41.0564L56.4205 40.7965L56.4206 40.7936L56.4258 40.6635L56.4263 40.6508L56.4261 40.638L56.4244 40.4877L56.4244 40.4842C56.4225 40.3791 56.4214 40.2704 56.4203 40.1598C56.4175 39.8694 56.4146 39.5654 56.3955 39.2766C56.3921 39.2096 56.3889 39.1369 56.3857 39.0623C56.3806 38.9435 56.3752 38.8199 56.3682 38.707L56.3684 38.707L56.3675 38.6966L56.323 38.1594C56.3069 37.902 56.276 37.6455 56.2487 37.4188C56.2372 37.3228 56.2263 37.2322 56.2174 37.1491L56.2174 37.1491L56.2169 37.1452L56.1912 36.9194L56.1913 36.9194L56.1902 36.911C56.1833 36.8583 56.1738 36.7981 56.166 36.7485C56.1624 36.7254 56.1591 36.7046 56.1566 36.688L56.1564 36.6862L56.0959 36.2895L56.0956 36.288C56.0901 36.2527 56.0843 36.2129 56.0782 36.1712C56.0663 36.0901 56.0534 36.0021 56.04 35.9276L56.0401 35.9276L56.0391 35.9224L55.9836 35.6303L55.9833 35.6291L55.9625 35.517L67.5505 32.2147L67.6626 32.5627L67.663 32.564L67.7982 32.988C67.8284 33.0858 67.8566 33.1857 67.888 33.2965C67.9046 33.3552 67.9221 33.417 67.9411 33.4832C67.9413 33.4836 67.9414 33.4841 67.9415 33.4845L68.1038 34.0585L68.1045 34.0607L68.1893 34.3661L68.2691 34.6876C68.2692 34.6881 68.2693 34.6886 68.2695 34.689C68.2973 34.8038 68.3258 34.9187 68.3545 35.0344C68.442 35.3871 68.5313 35.7468 68.607 36.1298L68.6069 36.1298L68.608 36.135L68.7749 36.935C68.8103 37.1207 68.8426 37.3075 68.8761 37.5015C68.8912 37.5888 68.9065 37.6775 68.9225 37.7683L68.9225 37.7683L68.9234 37.7732C69.009 38.2322 69.0733 38.7054 69.1408 39.2013C69.1554 39.3087 69.1701 39.4171 69.1853 39.5266C69.1853 39.5271 69.1854 39.5275 69.1855 39.5279L69.2146 39.7475L69.2389 39.9873L69.2391 39.9891L69.288 40.4865L69.2882 40.4883L69.3355 40.9884L69.3357 40.9903L69.3582 41.238L69.3732 41.4294L69.3732 41.4298L69.4331 42.2004L69.4331 42.2008L69.4479 42.3924L69.4479 42.3925L69.4489 42.4058L69.4502 42.5195L69.4503 42.5268L69.4506 42.5341L69.4511 42.5474L69.4511 42.5486L69.4533 42.6054L69.4533 42.6055L69.4577 42.7204L69.4577 42.7211L69.4745 43.1812L69.4746 43.1819L69.4903 43.6337L69.4951 44.0803C69.4954 44.1867 69.4966 44.2878 69.4977 44.3858C69.5 44.5826 69.5021 44.7669 69.4968 44.956H69.4967L69.4967 44.9604L69.4803 45.8193L69.4492 46.514ZM55.8428 35.5511L55.8429 35.5511C55.8428 35.5511 55.8429 35.5511 55.8428 35.5511Z" stroke="#8A919D"/>
<path d="M49.0807 22.0373L48.8306 21.7729C48.7747 21.7138 48.7081 21.6488 48.6575 21.5993C48.6352 21.5776 48.616 21.5589 48.6023 21.545L48.5998 21.5425L48.5054 21.4492L54.6938 13.9585L54.9685 14.1693C55.0113 14.2028 55.0515 14.2335 55.091 14.2637C55.1606 14.317 55.2279 14.3686 55.3038 14.4305C55.304 14.4306 55.3042 14.4308 55.3043 14.4309L55.7015 14.7566L55.7024 14.7574L56.1495 15.1258L56.6327 15.5482C56.697 15.6055 56.7584 15.6591 56.8184 15.7114C56.9308 15.8094 57.0381 15.903 57.1502 16.0087L57.1513 16.0098L57.7056 16.5286L57.7056 16.5286L57.7093 16.532C57.8736 16.6828 58.0354 16.8445 58.2099 17.0189C58.2289 17.0378 58.248 17.057 58.2673 17.0763C58.3374 17.1471 58.4053 17.2146 58.472 17.2809C58.5996 17.4077 58.7227 17.5301 58.8475 17.6625C58.8476 17.6626 58.8477 17.6627 58.8478 17.6628L59.441 18.2946L59.441 18.2946L59.4437 18.2975C59.538 18.3962 59.6309 18.5 59.7258 18.6088L59.7275 18.6107L60.0225 18.9457L60.0232 18.9465L60.3191 19.2836C60.3193 19.2839 60.3195 19.2841 60.3197 19.2843C60.3806 19.3542 60.4357 19.4212 60.4957 19.4941C60.5289 19.5345 60.5635 19.5767 60.6015 19.6221C60.6617 19.6955 60.7212 19.7673 60.78 19.8385C60.913 19.9994 61.043 20.1565 61.1716 20.3182L61.727 21.0372L61.7279 21.0382L61.8617 21.2125L61.9906 21.3901L61.9911 21.3908L62.2556 21.7566L62.2555 21.7566L62.2591 21.7614C62.5173 22.1099 62.753 22.4618 62.9917 22.8181C63.0752 22.9427 63.159 23.0678 63.2442 23.1935L63.6889 23.8997L63.69 23.9015L63.9025 24.242L64.101 24.5802L64.1016 24.5812L64.4858 25.2395C64.5667 25.3843 64.6428 25.5247 64.7187 25.6649C64.7539 25.7299 64.7891 25.7948 64.8247 25.86C64.8249 25.8604 64.825 25.8607 64.8252 25.861L64.9837 26.1536C64.984 26.1542 64.9843 26.1548 64.9846 26.1554C65.0061 26.1957 65.0245 26.2295 65.0413 26.2604C65.0733 26.319 65.0994 26.367 65.1295 26.4291L65.1295 26.4291L65.1318 26.4337L65.4175 27.0088L65.4185 27.0108L65.6662 27.5151C65.7254 27.6401 65.78 27.7549 65.8294 27.8587C65.8294 27.8588 65.8294 27.8588 65.8295 27.8589L65.9057 28.0199L55.1618 32.3364L55.105 32.1661L55.1048 32.1657L54.9889 31.8197L54.9889 31.8196L54.9865 31.8127L54.8837 31.5207L54.8823 31.5167L54.7699 31.188C54.7509 31.1281 54.7183 31.0464 54.6993 30.9988C54.6937 30.9848 54.6892 30.9737 54.6867 30.967L54.6867 30.967L54.6849 30.9622L54.6008 30.7478L54.6005 30.7472L54.422 30.2911L54.4189 30.2834L54.4157 30.2758L54.2093 29.7953L54.2086 29.7936L54.1017 29.5424L54.0983 29.5343L54.0945 29.5263L53.9761 29.2728L53.9757 29.2721L53.7308 28.7458L53.726 28.7356L53.7208 28.7257C53.6661 28.6208 53.6089 28.5069 53.5492 28.3882C53.4265 28.1442 53.2936 27.8799 53.1522 27.6322L53.0048 27.3626L53.0042 27.3615L52.9296 27.2243L52.9251 27.2162L52.9204 27.2082L52.8408 27.0739L52.8401 27.0728L52.5188 26.5279L52.5189 26.5278L52.5148 26.5211C52.4481 26.412 52.3737 26.2955 52.3028 26.1845C52.2572 26.113 52.213 26.0438 52.1733 25.9803L52.1733 25.9803L52.17 25.9751C52.1561 25.9535 52.1394 25.9268 52.1209 25.8975C52.0817 25.8349 52.0349 25.7603 51.9924 25.6978L51.9922 25.6976L51.8156 25.439L51.8148 25.4378L51.6413 25.1824C51.5828 25.0946 51.5194 25.002 51.4506 24.9107L51.0961 24.4242C51.0961 24.4241 51.096 24.424 51.0959 24.4239C51.0185 24.3173 50.9287 24.2031 50.8483 24.101C50.8049 24.0459 50.7643 23.9942 50.7299 23.9492L50.7299 23.9492L50.7273 23.9459C50.7093 23.9228 50.6911 23.8992 50.6726 23.8753C50.5757 23.7502 50.471 23.615 50.3626 23.4892L50.0253 23.0837C49.9506 22.9923 49.8611 22.8929 49.786 22.8093C49.7484 22.7675 49.7143 22.7296 49.6875 22.6987L49.6875 22.6987L49.6839 22.6947L49.3782 22.3505L49.3727 22.3442L49.3669 22.3381L49.0818 22.0384L49.0807 22.0373ZM65.968 28.1514C65.9679 28.1513 65.9679 28.1512 65.9678 28.1511L65.9679 28.1514L65.968 28.1514Z" stroke="#8A919D"/>
<path d="M35.398 14.9592C35.2585 14.93 35.1244 14.8987 34.9948 14.8772C34.8458 14.8516 34.7043 14.8273 34.5714 14.8045C34.4382 14.7813 34.3135 14.7596 34.1983 14.7395C34.0823 14.7237 33.9759 14.7092 33.8797 14.696C33.7747 14.6817 33.6821 14.6689 33.6026 14.658C33.4161 14.6324 33.2805 14.4687 33.2895 14.2807L33.655 6.64871C33.6644 6.4533 33.8263 6.3004 34.0219 6.30276C34.1453 6.30423 34.2991 6.30608 34.4804 6.30829C34.6092 6.31035 34.7519 6.31263 34.9071 6.31514C35.0622 6.32251 35.2301 6.33039 35.4095 6.33887C35.5891 6.34771 35.7802 6.35714 35.9817 6.36701C36.1835 6.37659 36.3943 6.39892 36.6154 6.41587C36.8363 6.4348 37.0666 6.45455 37.3049 6.47496C37.5425 6.50318 37.7883 6.53243 38.0409 6.56242C38.1674 6.57775 38.2956 6.5933 38.4254 6.60899C38.5552 6.6252 38.6854 6.64782 38.8178 6.6675C39.0109 6.69763 39.208 6.72843 39.4067 6.75945" stroke="#8A919D"/>
<path d="M39.2354 6.72266C39.3026 6.74815 46.3022 8.65767 46.3689 8.68294C46.6322 8.7819 46.8842 8.89405 47.1348 8.99662C47.3843 9.1014 47.6301 9.20124 47.863 9.31117C48.0974 9.41868 48.3256 9.52324 48.5463 9.62433C48.768 9.72417 48.9747 9.83418 49.1774 9.93307C49.3792 10.0342 49.5725 10.1311 49.7565 10.2233C49.9496 10.3286 50.1328 10.4284 50.305 10.5222C50.477 10.617 50.6381 10.7056 50.787 10.7877C50.8513 10.8241 50.913 10.8591 50.972 10.8924C51.0262 10.9235 51.0778 10.9531 51.1268 10.9812C51.2335 11.0425 51.3278 11.0965 51.4085 11.1428C51.5901 11.2469 51.6459 11.4822 51.5309 11.6571L46.2971 19.6294C46.1823 19.8044 45.9443 19.8467 45.7766 19.7215C45.702 19.6659 45.6149 19.6009 45.5162 19.5273C45.4711 19.4936 45.4234 19.458 45.3734 19.4206C45.3248 19.3845 45.2653 19.3394 45.2293 19.3147C45.1461 19.2551 45.0561 19.1907 44.9601 19.1218C44.8641 19.0519 44.762 18.9776 44.6543 18.8993C44.5315 18.8179 44.4026 18.7323 44.2677 18.643C44.1519 18.568 35.3475 14.9826 35.2227 14.9042" stroke="#8A919D"/>
<path d="M27.2587 15.1351C27.3598 15.1217 27.459 15.1052 27.5581 15.0948C27.6572 15.0847 27.7552 15.0748 27.8517 15.0649C28.0444 15.0449 28.2318 15.0255 28.4131 15.0066C28.5949 14.9945 28.7707 14.9827 28.9393 14.9713C29.0235 14.9656 29.1059 14.96 29.1864 14.9545C29.2667 14.9491 29.3472 14.9422 29.4161 14.9422C29.5583 14.9384 29.6932 14.9349 29.8199 14.9316C29.9462 14.9276 30.0642 14.9239 30.1735 14.9204C30.3083 14.9195 30.4321 14.9187 30.5438 14.918C30.6669 14.9173 30.7756 14.9167 30.8686 14.9162C31.0779 14.9151 31.2423 14.7379 31.2286 14.5291L30.7575 7.33972C30.7437 7.1309 30.5576 6.97668 30.35 7.00291C30.2577 7.01455 30.1499 7.02818 30.0278 7.04358C29.9146 7.05795 29.7893 7.07394 29.6528 7.09133C29.4916 7.11528 29.3173 7.14107 29.1309 7.1687C28.9452 7.19699 28.7474 7.22713 28.5389 7.25889C28.4322 7.27392 28.334 7.29389 28.2309 7.31334C28.1282 7.33294 28.023 7.35306 27.9156 7.37354C27.7013 7.41495 27.4781 7.45813 27.2469 7.50278C27.0175 7.55502 26.7802 7.60911 26.5364 7.66459C26.4148 7.69252 26.2914 7.72089 26.1666 7.74963C26.0419 7.7788 25.9169 7.81447 25.7901 7.84726C25.537 7.91468 25.2786 7.98357 25.0157 8.05357C24.7554 8.13205 24.4908 8.21177 24.223 8.29253C24.0895 8.33387 23.9546 8.37285 23.8205 8.41698C23.687 8.46259 23.5525 8.50835 23.4177 8.5544C23.2831 8.60053 23.1479 8.6468 23.0124 8.6933C22.8768 8.73942 22.741 8.78577 22.6071 8.8386C22.3385 8.9411 22.0689 9.04403 21.7993 9.14697C21.5308 9.25204 21.2668 9.36846 21.0022 9.47862C20.8703 9.53484 20.7381 9.58907 20.6077 9.64677C20.4783 9.70653 20.3493 9.76606 20.2207 9.82545C20.0924 9.88484 19.9645 9.94408 19.8374 10.003C19.7103 10.0618 19.5837 10.1197 19.4607 10.1836C19.2137 10.3082 18.9697 10.4314 18.7298 10.5526C18.4898 10.6729 18.2611 10.8057 18.034 10.9279C17.8078 11.0524 17.5854 11.1712 17.3757 11.2992C17.1647 11.4243 16.9595 11.5461 16.761 11.6639C16.5619 11.78 16.3772 11.9054 16.1963 12.0187C16.0166 12.1339 15.8444 12.2444 15.6806 12.3494C15.5203 12.4594 15.3682 12.5637 15.2253 12.6618C15.0828 12.7599 14.9495 12.8517 14.8261 12.9367C14.7029 13.0216 14.5939 13.1059 14.4935 13.1787C14.3574 13.2792 14.2412 13.3649 14.1472 13.4344C13.9902 13.5503 13.9533 13.7692 14.0631 13.9306L17.0484 18.3197C17.1547 18.4759 17.3624 18.5249 17.5269 18.432C17.6028 18.3892 17.6924 18.3386 17.7946 18.281C17.8836 18.2317 17.98 18.1735 18.0888 18.1168C18.1976 18.0601 18.3152 17.9989 18.4408 17.9335C18.5661 17.868 18.6995 17.7983 18.84 17.7248C18.9829 17.6563 19.1332 17.5842 19.29 17.5091C19.4475 17.4357 19.6073 17.3516 19.7797 17.2783C19.9507 17.2032 20.1275 17.1256 20.3094 17.0458C20.4894 16.9629 20.6801 16.8905 20.873 16.8131C21.0669 16.738 21.2612 16.6529 21.4646 16.5811C21.6672 16.5081 21.8732 16.4339 22.0816 16.3587C22.185 16.3195 22.2914 16.2862 22.398 16.2522C22.5044 16.2179 22.6114 16.1835 22.7188 16.1489C22.8259 16.1143 22.9335 16.0795 23.0414 16.0446C23.1498 16.0117 23.2598 15.9822 23.3691 15.9507C23.5886 15.8899 23.8067 15.8226 24.0277 15.7662C24.2489 15.7114 24.4701 15.6567 24.6904 15.6022C24.7998 15.5731 24.9107 15.5503 25.0212 15.5276C25.1314 15.5044 25.2414 15.4812 25.3509 15.4582C25.4601 15.435 25.569 15.4119 25.6773 15.3889C25.7858 15.3672 25.8949 15.3505 26.0026 15.3311C26.2179 15.2938 26.4305 15.2568 26.6398 15.2205C26.8498 15.1916 27.0563 15.163 27.2587 15.1351Z" fill="#8A919D"/>
<path d="M6.49778 20.3318C6.41952 20.4425 6.34098 20.5537 6.26206 20.6653C6.18337 20.7769 6.10438 20.8889 6.02509 21.0012C5.94618 21.1137 5.87234 21.2305 5.79557 21.3453C5.64422 21.5764 5.48934 21.8058 5.34108 22.0395C5.19629 22.2752 5.0515 22.5109 4.90731 22.7458L4.79973 22.9216L4.6976 23.1003C4.62974 23.219 4.5621 23.3376 4.49467 23.4556C4.2191 23.9237 3.9797 24.4022 3.73639 24.8567C3.62314 25.0884 3.51173 25.3163 3.40268 25.5394C3.34859 25.6508 3.29502 25.7612 3.24219 25.8701C3.19246 25.9805 3.14338 26.0896 3.0949 26.1974C2.99837 26.4124 2.9045 26.6216 2.81365 26.824C2.72891 27.0289 2.64697 27.2268 2.56835 27.4167C2.49128 27.6073 2.41339 27.7876 2.34701 27.9626C2.2815 28.1378 2.21931 28.304 2.16081 28.4601C2.1026 28.6161 2.04814 28.7621 1.99782 28.8971C1.95132 29.0334 1.90866 29.1586 1.87005 29.2717C1.81994 29.4204 1.77691 29.548 1.74176 29.6525C1.6795 29.8371 1.77419 30.0375 1.95619 30.1073L4.73481 31.1725C4.91165 31.2403 5.11082 31.1612 5.19254 30.9903C5.23306 30.9057 5.28147 30.8044 5.3371 30.688C5.38323 30.5922 5.43422 30.486 5.48985 30.3704C5.54895 30.2564 5.61283 30.1333 5.68114 30.0017C5.74922 29.8704 5.82158 29.7305 5.89791 29.5831C5.97484 29.4362 6.06341 29.2855 6.15131 29.1264C6.24032 28.9681 6.33309 28.8031 6.4291 28.6323C6.53027 28.4648 6.63483 28.2915 6.74241 28.1134C6.79597 28.0244 6.85028 27.9343 6.90525 27.8431C6.96309 27.7536 7.02167 27.6631 7.08084 27.5713C7.19917 27.3886 7.32009 27.202 7.44307 27.0121C7.70435 26.6422 7.95989 26.2526 8.24866 25.8769C8.31917 25.7819 8.38998 25.6866 8.46101 25.5911L8.56749 25.4476L8.67904 25.3073C8.82759 25.1202 8.97673 24.9326 9.12586 24.7449C9.27773 24.5595 9.43534 24.3789 9.58853 24.1968C9.66619 24.1063 9.74076 24.0141 9.82026 23.9262C9.89984 23.8384 9.97913 23.7509 10.0581 23.6637C10.137 23.5766 10.2154 23.4899 10.2935 23.4035C10.3709 23.3167 10.449 23.2315 10.5301 23.1498C10.6897 22.9845 10.8474 22.8212 11.0025 22.6605C11.1573 22.5001 11.3189 22.3513 11.4714 22.2008C11.6252 22.0514 11.7738 21.9041 11.927 21.769C12.0776 21.632 12.2241 21.4987 12.3658 21.3696C12.5064 21.2399 12.6513 21.1241 12.7851 21.0078C12.9198 20.8931 13.0489 20.7831 13.1716 20.6786C13.2922 20.5831 13.4065 20.4927 13.514 20.4075C13.6208 20.3224 13.7208 20.2428 13.8133 20.1691C13.8557 20.134 13.9132 20.092 13.9617 20.0551C14.0116 20.0175 14.0591 19.9817 14.1042 19.9477C14.2024 19.8735 14.2891 19.8081 14.3634 19.7521C14.5304 19.626 14.5563 19.3856 14.4204 19.2265L11.2568 15.5202C11.1209 15.3611 10.8795 15.3489 10.7288 15.4941C10.6618 15.5586 10.5835 15.634 10.4949 15.7194C10.4542 15.7585 10.4114 15.7999 10.3664 15.8431C10.3207 15.8875 10.2771 15.928 10.2204 15.986C10.1119 16.0954 9.99467 16.2138 9.86934 16.3403C9.74466 16.4668 9.61196 16.6014 9.47203 16.7433C9.34198 16.8842 9.20522 17.0323 9.06257 17.1868C8.92169 17.3425 8.76975 17.4994 8.62275 17.6714C8.47516 17.8425 8.32263 18.0194 8.16576 18.2011C8.00697 18.3808 7.85334 18.5738 7.69529 18.7696C7.53842 18.9664 7.37307 19.1627 7.21531 19.3708C7.058 19.5789 6.8981 19.7904 6.73629 20.0047C6.65406 20.1109 6.57544 20.2205 6.49778 20.3318Z" fill="#8A919D"/>
<path d="M0.748262 33.3258C0.729767 33.4168 0.708104 33.5235 0.683567 33.6441C0.661093 33.7547 0.636188 33.8774 0.609072 34.0108C0.582472 34.1473 0.556462 34.3084 0.52743 34.4729C0.498841 34.639 0.468483 34.8156 0.436504 35.0019C0.421031 35.0948 0.403347 35.1907 0.388683 35.2874C0.375641 35.3836 0.362378 35.4819 0.348747 35.5822C0.296873 35.984 0.228568 36.4163 0.189221 36.8781C0.166379 37.1083 0.142947 37.3446 0.119 37.5862C0.0992524 37.8281 0.086063 38.0758 0.069042 38.3269C0.0292526 38.8288 0.0219578 39.3493 0.00537894 39.8758L0 40.0737L0.000957893 40.2725C0.00169473 40.4052 0.00243157 40.5381 0.00316841 40.6714C0.00397894 40.8045 0.00478946 40.9379 0.0055263 41.0713L0.00677893 41.2715L0.0144421 41.4719C0.0252736 41.7384 0.0361052 42.0051 0.0469367 42.2706L0.0551157 42.4692L0.0576209 42.5335L0.0611578 42.5814L0.0682314 42.6771C0.077663 42.8048 0.0870209 42.932 0.0963787 43.0588C0.105737 43.1856 0.115094 43.3119 0.124305 43.4375C0.137052 43.5684 0.149652 43.699 0.162326 43.8287C0.175073 43.9582 0.187747 44.0869 0.200347 44.2148C0.206684 44.2785 0.213021 44.3422 0.219357 44.4055C0.227242 44.4678 0.235126 44.5299 0.242936 44.5918C0.274326 44.8387 0.305199 45.0815 0.33541 45.3192C0.371883 45.5558 0.407546 45.7873 0.442178 46.0127C0.474599 46.2379 0.516378 46.4558 0.554767 46.6665C0.557936 46.6833 0.561104 46.7 0.564199 46.7167C0.596251 46.889 0.746125 47.0137 0.921272 47.0137H1.90061C2.10972 47.0137 2.27566 46.8377 2.26335 46.629C2.26004 46.5733 2.25665 46.517 2.25289 46.4602C2.24066 46.2572 2.22592 46.0477 2.22121 45.8316C2.21413 45.6159 2.20691 45.3942 2.19947 45.1677C2.19807 44.9414 2.19667 44.7101 2.19527 44.4748C2.1949 44.4161 2.19453 44.3571 2.19416 44.298C2.19542 44.2397 2.19674 44.1811 2.19807 44.1222C2.20065 44.0049 2.20323 43.8867 2.20588 43.7677C2.20846 43.649 2.21111 43.5294 2.21376 43.4092C2.21966 43.2834 2.22548 43.1569 2.23145 43.03C2.23734 42.9031 2.24331 42.7756 2.24921 42.6477L2.2537 42.5517L2.25591 42.5037L2.25621 42.4976C2.25621 42.4824 2.2565 42.5117 2.25665 42.5067L2.25753 42.4951L2.25937 42.4719L2.27426 42.286C2.29401 42.0381 2.31383 41.7894 2.33372 41.5406L2.3489 41.3544L2.37034 41.1686C2.38464 41.045 2.39886 40.9215 2.41308 40.7982C2.42723 40.675 2.44137 40.5521 2.45545 40.4296L2.47645 40.2463L2.50364 40.0642C2.57821 39.5801 2.64157 39.1039 2.73442 38.648C2.77796 38.4195 2.81694 38.1948 2.86167 37.976C2.91037 37.7581 2.95797 37.545 3.00432 37.3375C3.09009 36.9218 3.20128 36.5354 3.29176 36.1773C3.31497 36.0879 3.33767 36.0003 3.35985 35.9148C3.38328 35.8306 3.40855 35.7508 3.43183 35.6719C3.47877 35.5147 3.52335 35.3656 3.5652 35.2254C3.60801 35.0841 3.64316 34.9577 3.68413 34.8309C3.72709 34.7015 3.76643 34.583 3.8021 34.4757C3.84085 34.3589 3.87512 34.2557 3.90444 34.1673C3.97039 33.9689 3.85522 33.7561 3.65303 33.7023L1.19796 33.0476C0.995693 32.9936 0.789967 33.1207 0.748262 33.3258Z" fill="#8A919D"/>
<path d="M33.3816 46.8666L33.5283 47.3446C30.2808 48.341 26.8403 46.5159 25.8439 43.2683L18.3068 18.7012L15.6032 9.88889L13.7705 3.91529L13.7704 3.91522C13.5911 3.33043 13.7801 2.80077 14.1432 2.46081C14.4411 2.18201 14.8555 2.02955 15.2714 2.06209C15.7038 2.09591 16.1184 2.32922 16.3779 2.77634L15.9455 3.02736L16.3779 2.77635L19.3934 7.97115L24.2614 16.3569L37.0438 38.3763L37.0453 38.379C37.2666 38.7656 37.4667 39.2104 37.6047 39.6603L33.3816 46.8666ZM33.3816 46.8666L33.5283 47.3446C34.4526 47.061 35.2631 46.5786 35.9256 45.9585M33.3816 46.8666L35.9256 45.9585M35.9256 45.9585C37.5862 44.404 38.3175 41.9836 37.6047 39.6604L35.9256 45.9585ZM30.2251 39.5621C31.1402 38.7055 32.5764 38.7528 33.4331 39.668C34.2896 40.583 34.2423 42.0194 33.3272 42.876C32.4121 43.7326 30.9757 43.6851 30.1192 42.7701C29.2624 41.8549 29.3099 40.4187 30.2251 39.5621Z" fill="#8A919D" stroke="white"/>
</svg>
