<svg width="70" height="48" viewBox="0 0 70 48" fill="none" xmlns="http://www.w3.org/2000/svg">
<path d="M69.4492 46.516H55.7446L55.8016 46.269C55.8018 46.2685 55.8019 46.2681 55.802 46.2676C55.8251 46.1696 55.8477 46.0552 55.8682 45.9511C55.8793 45.8945 55.8899 45.8409 55.8996 45.7946L55.8996 45.7947L55.9005 45.7901C55.9067 45.7592 55.9134 45.7267 55.9203 45.6931C55.9463 45.566 55.9758 45.422 55.9988 45.2764L56.0899 44.7525L56.0911 44.7453L56.0922 44.7382L56.1718 44.1877C56.1928 44.0591 56.2093 43.912 56.2238 43.7815C56.2313 43.7144 56.2383 43.6517 56.2452 43.5981L56.2452 43.5981L56.2457 43.5942C56.2562 43.5071 56.2667 43.4194 56.2771 43.3318L56.2811 43.2985L56.282 43.2905L56.2827 43.2826L56.3087 42.9849L56.3089 42.9836L56.3299 42.7513C56.3338 42.7455 56.3376 42.7396 56.3411 42.7335C56.3456 42.7082 56.3495 42.674 56.3501 42.6653C56.3508 42.6542 56.351 42.6453 56.351 42.645L56.351 42.6447L56.3519 42.6251L56.352 42.6233L56.3601 42.4309C56.3601 42.4309 56.3601 42.4308 56.3601 42.4308C56.3637 42.3475 56.3673 42.2641 56.3708 42.1806C56.3783 42.0066 56.3858 41.8321 56.3931 41.6577L56.4013 41.466L56.4014 41.466L56.4016 41.4554L56.4043 41.3254L56.4044 41.3222L56.4114 41.062L56.4115 41.0584L56.4205 40.7985L56.4206 40.7956L56.4258 40.6655L56.4263 40.6527L56.4261 40.6399L56.4244 40.4897L56.4244 40.4862C56.4225 40.3811 56.4214 40.2724 56.4203 40.1617C56.4175 39.8713 56.4146 39.5674 56.3955 39.2785C56.3921 39.2116 56.3889 39.1388 56.3857 39.0642C56.3806 38.9454 56.3752 38.8218 56.3682 38.7089L56.3684 38.7089L56.3675 38.6985L56.323 38.1613C56.3069 37.904 56.276 37.6474 56.2487 37.4208C56.2372 37.3248 56.2263 37.2342 56.2174 37.1511L56.2174 37.1511L56.2169 37.1472L56.1912 36.9214L56.1913 36.9214L56.1902 36.9129C56.1833 36.8603 56.1738 36.8001 56.166 36.7505C56.1624 36.7274 56.1591 36.7066 56.1566 36.6899L56.1564 36.6882L56.0959 36.2914L56.0956 36.2899C56.0901 36.2547 56.0843 36.2148 56.0782 36.1731C56.0663 36.092 56.0534 36.004 56.04 35.9295L56.0401 35.9295L56.0391 35.9244L55.9836 35.6322L55.9833 35.631L55.9625 35.5189L67.5505 32.2166L67.6626 32.5647L67.663 32.566L67.7982 32.9899C67.8284 33.0877 67.8566 33.1876 67.888 33.2984C67.9046 33.3572 67.9221 33.4189 67.9411 33.4851C67.9413 33.4856 67.9414 33.486 67.9415 33.4865L68.1038 34.0604L68.1045 34.0627L68.1893 34.3681L68.2691 34.6895C68.2692 34.69 68.2693 34.6905 68.2695 34.691C68.2973 34.8057 68.3258 34.9207 68.3545 35.0364C68.442 35.3891 68.5313 35.7488 68.607 36.1317L68.6069 36.1317L68.608 36.137L68.7749 36.9369C68.8103 37.1227 68.8425 37.3094 68.8761 37.5035C68.8912 37.5907 68.9065 37.6794 68.9225 37.7702L68.9225 37.7702L68.9234 37.7752C69.009 38.2342 69.0733 38.7073 69.1408 39.2033C69.1554 39.3106 69.1701 39.419 69.1853 39.5285C69.1853 39.529 69.1854 39.5294 69.1855 39.5299L69.2146 39.7494L69.2389 39.9893L69.2391 39.9911L69.288 40.4884L69.2882 40.4902L69.3355 40.9904L69.3357 40.9922L69.3582 41.24L69.3732 41.4314L69.3732 41.4317L69.4331 42.2024L69.4331 42.2028L69.4479 42.3943L69.4479 42.3945L69.4489 42.4078L69.4502 42.5215L69.4503 42.5288L69.4506 42.536L69.4511 42.5493L69.4511 42.5506L69.4533 42.6073L69.4533 42.6074L69.4577 42.7223L69.4577 42.7231L69.4745 43.1831L69.4746 43.1838L69.4903 43.6356L69.4951 44.0822C69.4954 44.1886 69.4966 44.2897 69.4977 44.3878C69.5 44.5845 69.5021 44.7688 69.4968 44.9579H69.4967L69.4967 44.9623L69.4803 45.8212L69.4492 46.516ZM55.8429 35.553L55.843 35.553L55.8429 35.553Z" stroke="#8A919D"/>
<path d="M49.0807 22.0393L48.8306 21.7749C48.7747 21.7158 48.7081 21.6507 48.6575 21.6013C48.6352 21.5795 48.616 21.5608 48.6023 21.547L48.5998 21.5445L48.5054 21.4512L54.6938 13.9604L54.9685 14.1712C55.0113 14.2047 55.0515 14.2355 55.091 14.2657C55.1606 14.319 55.2279 14.3705 55.3039 14.4325C55.304 14.4326 55.3042 14.4327 55.3043 14.4329L55.7015 14.7586L55.7024 14.7593L56.1495 15.1277L56.6327 15.5502C56.697 15.6075 56.7584 15.661 56.8184 15.7134C56.9308 15.8114 57.0381 15.905 57.1502 16.0106L57.1513 16.0117L57.7056 16.5305L57.7056 16.5306L57.7092 16.5339C57.8736 16.6848 58.0354 16.8464 58.2099 17.0208C58.2289 17.0398 58.248 17.0589 58.2674 17.0782C58.3374 17.1491 58.4053 17.2166 58.472 17.2829C58.5996 17.4097 58.7227 17.532 58.8475 17.6644C58.8476 17.6645 58.8477 17.6646 58.8478 17.6647L59.441 18.2965L59.441 18.2965L59.4437 18.2994C59.538 18.3982 59.6309 18.5019 59.7258 18.6108L59.7275 18.6127L60.0225 18.9477L60.0232 18.9484L60.3191 19.2856C60.3193 19.2858 60.3194 19.2859 60.3196 19.2861C60.3806 19.356 60.4357 19.4231 60.4957 19.4961C60.5289 19.5364 60.5636 19.5786 60.6016 19.6241C60.6617 19.6974 60.7211 19.7693 60.7799 19.8404C60.913 20.0013 61.0429 20.1585 61.1716 20.3201L61.727 21.0391L61.7279 21.0402L61.8617 21.2145L61.9906 21.392L61.9911 21.3928L62.2556 21.7585L62.2555 21.7585L62.2591 21.7634C62.5173 22.1119 62.753 22.4638 62.9917 22.8201C63.0752 22.9447 63.159 23.0698 63.2442 23.1955L63.6889 23.9016L63.69 23.9034L63.9025 24.2439L64.101 24.5821L64.1016 24.5831L64.4858 25.2415C64.5667 25.3862 64.6428 25.5267 64.7187 25.6669C64.754 25.7319 64.7892 25.7969 64.8248 25.8622C64.8249 25.8624 64.8251 25.8627 64.8252 25.863L64.9837 26.1555C64.984 26.1562 64.9843 26.1568 64.9846 26.1574C65.0061 26.1977 65.0245 26.2315 65.0413 26.2623C65.0732 26.321 65.0994 26.3689 65.1295 26.4311L65.1295 26.4311L65.1318 26.4357L65.4175 27.0107L65.4185 27.0127L65.6662 27.5171C65.7253 27.6418 65.7798 27.7564 65.8291 27.8601C65.8292 27.8604 65.8293 27.8606 65.8295 27.8608L65.9057 28.0218L55.1618 32.3384L55.105 32.1681L55.1048 32.1677L54.9889 31.8216L54.9889 31.8216L54.9865 31.8147L54.8837 31.5226L54.8823 31.5187L54.7699 31.19C54.7509 31.1301 54.7183 31.0484 54.6993 31.0008C54.6937 30.9867 54.6892 30.9757 54.6867 30.969L54.6867 30.969L54.6849 30.9642L54.6007 30.7497L54.6005 30.7491L54.422 30.293L54.4189 30.2853L54.4157 30.2777L54.2093 29.7973L54.2086 29.7955L54.1017 29.5443L54.0983 29.5362L54.0945 29.5283L53.9761 29.2748L53.9757 29.274L53.7308 28.7478L53.726 28.7376L53.7208 28.7276C53.6661 28.6227 53.6089 28.5088 53.5492 28.3901C53.4265 28.1461 53.2936 27.8819 53.1522 27.6341L53.0048 27.3646L53.0042 27.3634L52.9296 27.2263L52.9251 27.2181L52.9204 27.2101L52.8408 27.0758L52.8401 27.0747L52.5188 26.5298L52.5189 26.5298L52.5148 26.5231C52.4481 26.414 52.3737 26.2975 52.3028 26.1864C52.2572 26.115 52.213 26.0458 52.1733 25.9823L52.1733 25.9823L52.17 25.9771C52.1561 25.9555 52.1394 25.9288 52.1209 25.8994C52.0817 25.8368 52.0349 25.7623 51.9924 25.6998L51.9922 25.6996L51.8156 25.441L51.8148 25.4398L51.6413 25.1843C51.5828 25.0965 51.5194 25.004 51.4506 24.9127L51.0961 24.4261C51.0961 24.4261 51.096 24.426 51.096 24.4259C51.0185 24.3193 50.9287 24.2051 50.8483 24.103C50.8049 24.0478 50.7643 23.9962 50.7299 23.9512L50.7299 23.9511L50.7273 23.9478C50.7093 23.9248 50.6911 23.9012 50.6726 23.8772C50.5757 23.7522 50.471 23.617 50.3627 23.4912L50.0253 23.0857C49.9506 22.9942 49.8611 22.8948 49.786 22.8112C49.7483 22.7694 49.7143 22.7316 49.6875 22.7007L49.6875 22.7007L49.6839 22.6966L49.3782 22.3524L49.3727 22.3462L49.3669 22.3401L49.0818 22.0404L49.0807 22.0393ZM65.968 28.1534C65.9679 28.1532 65.9678 28.153 65.9677 28.1528L65.9679 28.1534L65.968 28.1534Z" stroke="#8A919D"/>
<path d="M33.8797 14.698C33.9759 14.7111 34.0823 14.7256 34.1983 14.7415C34.3135 14.7615 34.4382 14.7832 34.5714 14.8065C34.7043 14.8293 34.8458 14.8535 34.9948 14.8792C35.1244 14.9007 35.2585 14.9319 35.398 14.9611L39.4067 6.76141C39.208 6.73039 39.0109 6.69959 38.8178 6.66945C38.6854 6.64978 38.5552 6.62716 38.4254 6.61094C38.2956 6.59525 38.1674 6.5797 38.0409 6.56438C37.7883 6.53439 37.5425 6.50513 37.3049 6.47691C37.0666 6.4565 36.8363 6.43676 36.6154 6.41782C36.3943 6.40087 36.1835 6.37855 35.9817 6.36897C35.7802 6.35909 35.5891 6.34966 35.4095 6.34082C35.2301 6.33235 35.0622 6.32446 34.9071 6.31709C34.7519 6.31459 34.6092 6.3123 34.4804 6.31024C34.2991 6.30803 34.1453 6.30619 34.0219 6.30471C33.8263 6.30236 33.6644 6.45525 33.655 6.65066L33.2895 14.2826C33.2805 14.4707 33.4161 14.6344 33.6026 14.66C33.6821 14.6709 33.7747 14.6836 33.8797 14.698Z" fill="#8A919D"/>
<path d="M44.655 18.9001C44.7627 18.9785 44.8648 19.0527 44.9607 19.1227C45.0568 19.1915 45.1468 19.2559 45.23 19.3155C45.266 19.3402 45.3255 19.3853 45.374 19.4214C45.4241 19.4588 45.4717 19.4944 45.5169 19.5281C45.6156 19.6017 45.7027 19.6667 45.7772 19.7224C45.9449 19.8475 46.1829 19.8052 46.2978 19.6303L51.5316 11.6579C51.6465 11.483 51.5908 11.2477 51.4092 11.1436C51.3284 11.0974 51.2342 11.0433 51.1275 10.982C51.0785 10.9539 51.0269 10.9243 50.9727 10.8932C50.9137 10.8599 50.852 10.8249 50.7877 10.7885C50.6388 10.7065 50.4777 10.6178 50.3056 10.523C50.1335 10.4292 49.9503 10.3294 49.7572 10.2241C49.5732 10.1319 49.3799 10.0351 49.178 9.93388C48.9754 9.835 48.7687 9.72499 48.5469 9.62515C48.3263 9.52405 48.0981 9.41949 47.8637 9.31199C47.6308 9.20205 47.3849 9.10221 47.1355 8.99743C46.8849 8.89486 46.6329 8.78272 46.3696 8.68376C46.3029 8.65849 46.2352 8.63292 46.168 8.60742L43.9102 18.4073C44.035 18.4857 44.1526 18.5688 44.2684 18.6438C44.4032 18.7332 44.5322 18.8187 44.655 18.9001Z" fill="#8A919D"/>
<path d="M26.8524 14.6585C26.9535 14.6451 27.0528 14.6286 27.1519 14.6182C27.251 14.6082 27.3489 14.5982 27.4454 14.5883C27.6381 14.5684 27.8255 14.5489 28.0068 14.5301C28.1887 14.5179 28.3644 14.5061 28.5331 14.4948C28.6172 14.489 28.6996 14.4834 28.7802 14.4779C28.8605 14.4725 28.9409 14.4657 29.0099 14.4656C29.152 14.4618 29.287 14.4584 29.4136 14.455C29.5399 14.4511 29.6579 14.4473 29.7673 14.4438C29.9021 14.443 30.0259 14.4421 30.1376 14.4414C30.2606 14.4407 30.3694 14.4402 30.4624 14.4396C30.6716 14.4385 30.8361 14.2613 30.8224 14.0525L30.3512 6.86316C30.3375 6.65434 30.1513 6.50012 29.9438 6.52635C29.8514 6.53799 29.7436 6.55162 29.6216 6.56702C29.5084 6.58139 29.383 6.59738 29.2466 6.61477C29.0854 6.63872 28.911 6.66451 28.7247 6.69214C28.5389 6.72043 28.3411 6.75057 28.1327 6.78233C28.026 6.79736 27.9278 6.81733 27.8247 6.83678C27.7219 6.85638 27.6168 6.87649 27.5094 6.89698C27.295 6.93839 27.0719 6.98157 26.8406 7.02622C26.6113 7.07846 26.374 7.13255 26.1302 7.18803C26.0085 7.21596 25.8852 7.24432 25.7604 7.27306C25.6357 7.30224 25.5106 7.3379 25.3838 7.37069C25.1307 7.43811 24.8723 7.50701 24.6094 7.57701C24.3492 7.65548 24.0846 7.73521 23.8168 7.81597C23.6833 7.8573 23.5484 7.89628 23.4143 7.94042C23.2807 7.98603 23.1463 8.03179 23.0114 8.07784C22.8768 8.12396 22.7417 8.17024 22.6062 8.21673C22.4706 8.26286 22.3348 8.30921 22.2008 8.36204C21.9322 8.46453 21.6626 8.56747 21.393 8.6704C21.1246 8.77548 20.8606 8.8919 20.596 9.00206C20.4641 9.05828 20.3318 9.11251 20.2015 9.1702C20.072 9.22996 19.943 9.2895 19.8144 9.34889C19.6861 9.40828 19.5583 9.46752 19.4312 9.52639C19.3041 9.58519 19.1775 9.64311 19.0544 9.70699C18.8075 9.83166 18.5635 9.95487 18.3236 10.076C18.0836 10.1963 17.8549 10.3291 17.6277 10.4513C17.4016 10.5759 17.1792 10.6947 16.9694 10.8226C16.7585 10.9478 16.5532 11.0696 16.3547 11.1873C16.1556 11.3034 15.971 11.4288 15.79 11.5422C15.6103 11.6573 15.4381 11.7678 15.2743 11.8728C15.114 11.9828 14.962 12.0871 14.8191 12.1852C14.6766 12.2834 14.5432 12.3752 14.4199 12.4601C14.2967 12.5451 14.1877 12.6293 14.0873 12.7021C13.9512 12.8026 13.835 12.8884 13.7409 12.9578C13.5839 13.0737 13.5471 13.2926 13.6569 13.454L16.6422 17.8431C16.7484 17.9993 16.9561 18.0483 17.1207 17.9554C17.1965 17.9127 17.2861 17.862 17.3883 17.8044C17.4774 17.7551 17.5738 17.6969 17.6826 17.6403C17.7914 17.5835 17.909 17.5224 18.0346 17.4569C18.1598 17.3914 18.2932 17.3217 18.4337 17.2483C18.5767 17.1797 18.7269 17.1077 18.8837 17.0325C19.0413 16.9591 19.2011 16.875 19.3734 16.8017C19.5444 16.7266 19.7213 16.6491 19.9031 16.5693C20.0831 16.4864 20.2738 16.4139 20.4667 16.3366C20.6607 16.2614 20.8549 16.1764 21.0584 16.1045C21.2609 16.0315 21.4669 15.9573 21.6754 15.8822C21.7788 15.8429 21.8852 15.8096 21.9918 15.7756C22.0982 15.7413 22.2052 15.7069 22.3125 15.6724C22.4197 15.6377 22.5272 15.603 22.6351 15.568C22.7436 15.5351 22.8536 15.5056 22.9629 15.4741C23.1824 15.4134 23.4004 15.346 23.6215 15.2896C23.8427 15.2348 24.0639 15.1801 24.2842 15.1256C24.3935 15.0965 24.5045 15.0738 24.6149 15.051C24.7252 15.0278 24.8351 15.0047 24.9447 14.9816C25.0539 14.9584 25.1627 14.9353 25.271 14.9123C25.3796 14.8907 25.4887 14.8739 25.5963 14.8546C25.8116 14.8172 26.0243 14.7802 26.2336 14.744C26.4436 14.715 26.6501 14.6864 26.8524 14.6585Z" fill="#8A919D"/>
<path d="M6.49778 20.3318C6.41952 20.4425 6.34098 20.5537 6.26206 20.6653C6.18337 20.7768 6.10438 20.8888 6.02509 21.0012C5.94618 21.1137 5.87234 21.2304 5.79557 21.3452C5.64422 21.5764 5.48934 21.8058 5.34108 22.0395C5.19629 22.2752 5.0515 22.5109 4.90731 22.7458L4.79973 22.9216L4.6976 23.1003C4.62974 23.219 4.5621 23.3376 4.49467 23.4556C4.2191 23.9237 3.9797 24.4022 3.73639 24.8567C3.62314 25.0884 3.51173 25.3163 3.40268 25.5394C3.34859 25.6508 3.29502 25.7612 3.24219 25.8701C3.19246 25.9805 3.14338 26.0896 3.0949 26.1973C2.99837 26.4124 2.9045 26.6216 2.81365 26.824C2.72891 27.0289 2.64697 27.2268 2.56835 27.4167C2.49128 27.6073 2.41339 27.7876 2.34701 27.9626C2.2815 28.1377 2.21931 28.304 2.16081 28.4601C2.1026 28.6161 2.04814 28.7621 1.99782 28.8971C1.95132 29.0334 1.90866 29.1586 1.87005 29.2717C1.81994 29.4204 1.77691 29.548 1.74176 29.6525C1.6795 29.8371 1.77419 30.0375 1.95619 30.1072L4.73481 31.1725C4.91165 31.2403 5.11082 31.1611 5.19254 30.9903C5.23306 30.9057 5.28147 30.8044 5.3371 30.688C5.38323 30.5922 5.43422 30.486 5.48985 30.3704C5.54895 30.2564 5.61283 30.1333 5.68114 30.0017C5.74922 29.8704 5.82158 29.7305 5.89791 29.5831C5.97484 29.4362 6.06341 29.2855 6.15131 29.1264C6.24032 28.9681 6.33309 28.8031 6.4291 28.6323C6.53027 28.4648 6.63483 28.2915 6.74241 28.1134C6.79597 28.0244 6.85028 27.9343 6.90525 27.8431C6.96309 27.7536 7.02167 27.6631 7.08084 27.5713C7.19917 27.3886 7.32009 27.202 7.44307 27.0121C7.70435 26.6422 7.95989 26.2526 8.24866 25.8769C8.31917 25.7819 8.38998 25.6866 8.46101 25.5911L8.56749 25.4476L8.67904 25.3073C8.82759 25.1202 8.97673 24.9326 9.12586 24.7449C9.27773 24.5595 9.43534 24.3789 9.58853 24.1967C9.66619 24.1063 9.74076 24.0141 9.82026 23.9262C9.89984 23.8384 9.97913 23.7509 10.0581 23.6637C10.137 23.5766 10.2154 23.4899 10.2935 23.4035C10.3709 23.3167 10.449 23.2315 10.5301 23.1498C10.6897 22.9845 10.8474 22.8212 11.0025 22.6605C11.1573 22.5001 11.3189 22.3513 11.4714 22.2008C11.6252 22.0514 11.7738 21.9041 11.927 21.769C12.0776 21.632 12.2241 21.4987 12.3658 21.3696C12.5064 21.2399 12.6513 21.124 12.7851 21.0078C12.9198 20.893 13.0489 20.7831 13.1716 20.6786C13.2922 20.5831 13.4065 20.4927 13.514 20.4075C13.6208 20.3224 13.7208 20.2428 13.8133 20.1691C13.8557 20.134 13.9132 20.092 13.9617 20.0551C14.0116 20.0175 14.0591 19.9816 14.1042 19.9477C14.2024 19.8735 14.2891 19.8081 14.3634 19.7521C14.5304 19.626 14.5563 19.3856 14.4204 19.2265L11.2568 15.5202C11.1209 15.3611 10.8795 15.3489 10.7288 15.4941C10.6618 15.5586 10.5835 15.634 10.4949 15.7194C10.4542 15.7585 10.4114 15.7999 10.3664 15.8431C10.3207 15.8875 10.2771 15.928 10.2204 15.986C10.1119 16.0954 9.99467 16.2138 9.86934 16.3403C9.74466 16.4668 9.61196 16.6014 9.47203 16.7433C9.34198 16.8842 9.20522 17.0323 9.06257 17.1868C8.92169 17.3425 8.76975 17.4994 8.62275 17.6714C8.47516 17.8425 8.32263 18.0194 8.16576 18.2011C8.00697 18.3808 7.85334 18.5738 7.69529 18.7695C7.53842 18.9664 7.37307 19.1627 7.21531 19.3708C7.058 19.5789 6.8981 19.7904 6.73629 20.0047C6.65406 20.1109 6.57544 20.2205 6.49778 20.3318Z" fill="#8A919D"/>
<path d="M0.748262 33.3277C0.729767 33.4188 0.708104 33.5255 0.683567 33.646C0.661093 33.7567 0.636188 33.8793 0.609072 34.0128C0.582472 34.1492 0.556462 34.3104 0.52743 34.4748C0.498841 34.6409 0.468483 34.8176 0.436504 35.0039C0.421031 35.0967 0.403347 35.1927 0.388683 35.2894C0.375641 35.3856 0.362378 35.4839 0.348747 35.5841C0.296873 35.9859 0.228568 36.4183 0.189221 36.8801C0.166379 37.1102 0.142947 37.3465 0.119 37.5881C0.0992524 37.83 0.086063 38.0778 0.069042 38.3289C0.0292526 38.8307 0.0219578 39.3512 0.00537894 39.8778L0 40.0757L0.000957893 40.2744C0.00169473 40.4071 0.00243157 40.5401 0.00316841 40.6734C0.00397894 40.8065 0.00478946 40.9399 0.0055263 41.0733L0.00677893 41.2735L0.0144421 41.4739C0.0252736 41.7404 0.0361052 42.007 0.0469367 42.2726L0.0551157 42.4712L0.0576209 42.5355L0.0611578 42.5834L0.0682314 42.6791C0.077663 42.8067 0.0870209 42.934 0.0963787 43.0608C0.105737 43.1876 0.115094 43.3138 0.124305 43.4395C0.137052 43.5704 0.149652 43.701 0.162326 43.8307C0.175073 43.9602 0.187747 44.0888 0.200347 44.2168C0.206684 44.2805 0.213021 44.3442 0.219357 44.4075C0.227242 44.4698 0.235126 44.5319 0.242936 44.5938C0.274326 44.8406 0.305199 45.0834 0.33541 45.3211C0.371883 45.5577 0.407546 45.7893 0.442178 46.0147C0.474599 46.2399 0.516378 46.4578 0.554767 46.6685C0.557936 46.6853 0.561104 46.702 0.564199 46.7187C0.596251 46.891 0.746125 47.0157 0.921272 47.0157H1.90061C2.10972 47.0157 2.27566 46.8397 2.26335 46.631C2.26004 46.5753 2.25665 46.519 2.25289 46.4622C2.24066 46.2591 2.22592 46.0497 2.22121 45.8336C2.21413 45.6179 2.20691 45.3962 2.19947 45.1697C2.19807 44.9434 2.19667 44.7121 2.19527 44.4768C2.1949 44.4181 2.19453 44.359 2.19416 44.3C2.19542 44.2417 2.19674 44.1831 2.19807 44.1242C2.20065 44.0069 2.20323 43.8886 2.20588 43.7696C2.20846 43.6509 2.21111 43.5314 2.21376 43.4112C2.21966 43.2854 2.22548 43.1589 2.23145 43.032C2.23734 42.905 2.24331 42.7776 2.24921 42.6497L2.2537 42.5537L2.25591 42.5057L2.25621 42.4996C2.25621 42.4844 2.2565 42.5137 2.25665 42.5087L2.25753 42.497L2.25937 42.4739L2.27426 42.288C2.29401 42.0401 2.31383 41.7914 2.33372 41.5425L2.3489 41.3563L2.37034 41.1706C2.38464 41.0469 2.39886 40.9234 2.41308 40.8002C2.42723 40.677 2.44137 40.5541 2.45545 40.4316L2.47645 40.2483L2.50364 40.0662C2.57821 39.5821 2.64157 39.1059 2.73442 38.6499C2.77796 38.4215 2.81694 38.1968 2.86167 37.978C2.91037 37.7601 2.95797 37.5469 3.00432 37.3395C3.09009 36.9238 3.20128 36.5374 3.29176 36.1792C3.31497 36.0898 3.33767 36.0022 3.35985 35.9168C3.38328 35.8325 3.40855 35.7528 3.43183 35.6738C3.47877 35.5166 3.52335 35.3676 3.5652 35.2274C3.60801 35.086 3.64316 34.9597 3.68413 34.8329C3.72709 34.7035 3.76643 34.5849 3.8021 34.4777C3.84085 34.3608 3.87512 34.2577 3.90444 34.1693C3.97039 33.9708 3.85522 33.7581 3.65303 33.7042L1.19796 33.0496C0.995693 32.9955 0.789967 33.1227 0.748262 33.3277Z" fill="#8A919D"/>
<path d="M28.5393 46.0522C29.338 46.4426 30.1841 46.6277 31.0171 46.6277C33.1081 46.6277 35.1177 45.4627 36.0979 43.4576C36.2867 43.0716 36.4328 42.6455 36.5278 42.2442L42.244 17.4336L44.4209 7.98484L45.7696 2.1316C45.9265 1.45039 45.3846 0.986328 44.841 0.986328C44.5228 0.986328 44.2039 1.14541 44.0241 1.51302L41.2797 7.12649L37.2312 15.4076L25.9446 38.4936C24.5739 41.2973 25.7356 44.6815 28.5393 46.0522ZM31.2267 38.0623C32.7563 38.0623 33.9963 39.3023 33.9963 40.8319C33.9963 42.3615 32.7563 43.6016 31.2267 43.6016C29.6971 43.6016 28.4571 42.3615 28.4571 40.8319C28.4571 39.3021 29.6971 38.0623 31.2267 38.0623Z" fill="#8A919D"/>
</svg>
