<svg width="70" height="53" viewBox="0 0 70 53" fill="none" xmlns="http://www.w3.org/2000/svg">
<path d="M55.7446 40.514H69.4492L69.4803 39.8193L69.4967 38.9604L69.4967 38.956H69.4968C69.5021 38.7669 69.5 38.5826 69.4977 38.3858C69.4966 38.2878 69.4954 38.1867 69.4951 38.0803L69.4903 37.6337L69.4746 37.1819L69.4745 37.1812L69.4577 36.7211L69.4577 36.7204L69.4533 36.6055L69.4533 36.6054L69.4511 36.5486L69.4511 36.5474L69.4506 36.5341L69.4503 36.5268L69.4502 36.5195L69.4489 36.4058L69.4479 36.3925L69.4479 36.3924L69.4331 36.2008L69.4331 36.2004L69.3732 35.4298L69.3732 35.4294L69.3582 35.238L69.3357 34.9903L69.3355 34.9884L69.2882 34.4883L69.288 34.4865L69.2391 33.9891L69.2389 33.9873L69.2146 33.7474L69.1855 33.5279C69.1854 33.5275 69.1853 33.527 69.1853 33.5266C69.1701 33.417 69.1554 33.3086 69.1408 33.2013C69.0733 32.7053 69.009 32.2322 68.9234 31.7732L68.9225 31.7683L68.9225 31.7683C68.9065 31.6775 68.8912 31.5888 68.8761 31.5015C68.8425 31.3074 68.8103 31.1207 68.7749 30.9349L68.608 30.135L68.6069 30.1298L68.607 30.1298C68.5313 29.7468 68.442 29.3871 68.3545 29.0344C68.3258 28.9187 68.2973 28.8038 68.2695 28.689C68.2693 28.6886 68.2692 28.6881 68.2691 28.6876L68.1893 28.3661L68.1045 28.0607L68.1038 28.0585L67.9415 27.4845C67.9414 27.4841 67.9413 27.4836 67.9411 27.4832C67.9221 27.417 67.9046 27.3552 67.888 27.2965C67.8566 27.1857 67.8284 27.0858 67.7982 26.988L67.663 26.564L67.6626 26.5627L67.5505 26.2147L55.9625 29.517L55.9833 29.6291L55.9836 29.6303L56.0391 29.9224L56.0401 29.9276L56.04 29.9276C56.0534 30.0021 56.0663 30.0901 56.0782 30.1712C56.0843 30.2129 56.0901 30.2527 56.0956 30.288L56.0959 30.2895L56.1564 30.6862L56.1566 30.688C56.1591 30.7046 56.1624 30.7254 56.166 30.7485C56.1738 30.7981 56.1833 30.8583 56.1902 30.911L56.1913 30.9194L56.1912 30.9194L56.2169 31.1452L56.2174 31.1491L56.2174 31.1491C56.2263 31.2322 56.2372 31.3228 56.2487 31.4188C56.276 31.6455 56.3069 31.902 56.323 32.1594L56.3675 32.6966L56.3684 32.707L56.3682 32.707C56.3752 32.8199 56.3806 32.9435 56.3857 33.0623C56.3889 33.1369 56.3921 33.2096 56.3955 33.2766C56.3955 33.2778 56.3956 33.2791 56.3957 33.2803L55.8963 33.3059C55.9147 33.5807 55.9174 33.8636 55.9202 34.1501C55.9213 34.264 55.9224 34.3786 55.9245 34.4934L55.7446 40.514ZM55.7446 40.514L55.8016 40.267C55.8018 40.2666 55.8019 40.2661 55.802 40.2657C55.8251 40.1677 55.8477 40.0532 55.8682 39.9491C55.8793 39.8925 55.8899 39.8389 55.8996 39.7927L55.8996 39.7927L55.9005 39.7882C55.9067 39.7572 55.9134 39.7248 55.9203 39.6912C55.9463 39.5641 55.9758 39.4201 55.9988 39.2745L56.0899 38.7505L56.0911 38.7434L56.0922 38.7362L56.1718 38.1858C56.1928 38.0572 56.2093 37.91 56.2238 37.7796C56.2313 37.7124 56.2383 37.6497 56.2452 37.5962L56.2452 37.5962L56.2457 37.5923C56.2562 37.5052 56.2667 37.4175 56.2771 37.3298L56.2811 37.2966L56.282 37.2886L56.2827 37.2806L56.3087 36.983L56.3089 36.9817L56.3299 36.7493C56.3339 36.7435 56.3376 36.7375 56.3412 36.7314C56.3456 36.7062 56.3495 36.6721 56.3501 36.6633C56.3508 36.6527 56.3509 36.644 56.351 36.6431L56.351 36.6431L56.351 36.6428L56.3519 36.6231L56.352 36.6214L56.3601 36.4289C56.3601 36.4289 56.3601 36.4289 56.3601 36.4288C56.3637 36.3456 56.3673 36.2621 56.3708 36.1786C56.3783 36.0046 56.3858 35.8302 56.3931 35.6558L56.4013 35.464L56.4014 35.4641L56.4016 35.4534L56.4043 35.3234L56.4044 35.3203L56.4114 35.0601L56.4115 35.0564L56.4205 34.7965L56.4206 34.7936L55.7446 40.514ZM55.8428 29.5511L55.8429 29.5511C55.8428 29.5511 55.8429 29.5511 55.8428 29.5511Z" fill="#8A919D" stroke="#8A919D"/>
<path d="M49.0807 16.0373L48.8306 15.7729C48.7747 15.7138 48.7081 15.6488 48.6575 15.5993C48.6352 15.5776 48.616 15.5589 48.6023 15.545L48.5998 15.5425L48.5054 15.4492L54.6938 7.95849L54.9685 8.16927C55.0113 8.20279 55.0515 8.23355 55.091 8.26374C55.1606 8.31703 55.2279 8.36856 55.3038 8.43049C55.304 8.43063 55.3042 8.43077 55.3043 8.43091L55.7015 8.75662L55.7024 8.75737L56.1495 9.12578L56.6327 9.5482C56.697 9.6055 56.7584 9.65908 56.8184 9.71142C56.9308 9.80939 57.0381 9.90303 57.1502 10.0087L57.1513 10.0098L57.7056 10.5286L57.7056 10.5286L57.7093 10.532C57.8736 10.6828 58.0354 10.8445 58.2099 11.0189C58.2289 11.0378 58.248 11.057 58.2673 11.0763C58.3374 11.1471 58.4053 11.2146 58.472 11.2809C58.5996 11.4077 58.7227 11.5301 58.8475 11.6625C58.8476 11.6626 58.8477 11.6627 58.8478 11.6628L59.441 12.2946L59.441 12.2946L59.4437 12.2975C59.538 12.3962 59.6309 12.5 59.7258 12.6088L59.7275 12.6107L60.0225 12.9457L60.0232 12.9465L60.3191 13.2836C60.3193 13.2839 60.3195 13.2841 60.3197 13.2843C60.3806 13.3542 60.4357 13.4212 60.4957 13.4941C60.5289 13.5345 60.5635 13.5767 60.6015 13.6221C60.6617 13.6955 60.7212 13.7673 60.78 13.8385C60.913 13.9994 61.043 14.1565 61.1716 14.3182L61.727 15.0372L61.7279 15.0382L61.8617 15.2125L61.9906 15.3901L61.9911 15.3908L62.2556 15.7566L62.2555 15.7566L62.2591 15.7614C62.5173 16.1099 62.753 16.4618 62.9917 16.8181C63.0752 16.9427 63.159 17.0678 63.2442 17.1935L63.6889 17.8997L63.69 17.9015L63.9025 18.242L64.101 18.5802L64.1016 18.5812L64.4858 19.2395C64.5667 19.3843 64.6428 19.5247 64.7187 19.6649C64.7539 19.7299 64.7891 19.7948 64.8247 19.86C64.8249 19.8604 64.825 19.8607 64.8252 19.861L64.9837 20.1536C64.984 20.1542 64.9843 20.1548 64.9846 20.1554C65.0061 20.1957 65.0245 20.2295 65.0413 20.2604C65.0733 20.319 65.0994 20.367 65.1295 20.4291L65.1295 20.4291L65.1318 20.4337L65.4175 21.0088L65.4185 21.0108L65.6662 21.5151C65.7254 21.6401 65.78 21.7549 65.8294 21.8587C65.8294 21.8588 65.8294 21.8588 65.8295 21.8589L65.9057 22.0199L55.1618 26.3364L55.105 26.1661L55.1048 26.1657L54.9889 25.8197L54.9889 25.8196L54.9865 25.8127L54.8837 25.5207L54.8823 25.5167L54.7699 25.188C54.7509 25.1281 54.7183 25.0464 54.6993 24.9988C54.6937 24.9848 54.6892 24.9737 54.6867 24.967L54.6867 24.967L54.6849 24.9622L54.6008 24.7478L54.6005 24.7472L54.422 24.2911L54.4189 24.2834L54.4157 24.2758L54.2093 23.7953L54.2086 23.7936L54.1017 23.5424L54.0983 23.5343L54.0945 23.5263L53.9761 23.2728L53.9757 23.2721L53.7308 22.7458L53.726 22.7356L53.7208 22.7257C53.6661 22.6208 53.6089 22.5069 53.5492 22.3882C53.4265 22.1442 53.2936 21.8799 53.1522 21.6322L53.0048 21.3626L53.0042 21.3615L52.9296 21.2243L52.9251 21.2162L52.9204 21.2082L52.8408 21.0739L52.8401 21.0728L52.5188 20.5279L52.5189 20.5278L52.5148 20.5211C52.4481 20.412 52.3737 20.2955 52.3028 20.1845C52.2572 20.113 52.213 20.0438 52.1733 19.9803L52.1733 19.9803L52.17 19.9751C52.1561 19.9535 52.1394 19.9268 52.1209 19.8975C52.0817 19.8349 52.0349 19.7603 51.9924 19.6978L51.9922 19.6976L51.8156 19.439L51.8148 19.4378L51.6413 19.1824C51.5828 19.0946 51.5194 19.002 51.4506 18.9107L51.0961 18.4242C51.0961 18.4241 51.096 18.424 51.0959 18.4239C51.0185 18.3173 50.9287 18.2031 50.8483 18.101C50.8049 18.0459 50.7643 17.9942 50.7299 17.9492L50.7299 17.9492L50.7273 17.9459C50.7093 17.9228 50.6911 17.8992 50.6726 17.8753C50.5757 17.7502 50.471 17.615 50.3626 17.4892L50.0253 17.0837C49.9506 16.9923 49.8611 16.8929 49.786 16.8093C49.7484 16.7675 49.7143 16.7296 49.6875 16.6987L49.6875 16.6987L49.6839 16.6947L49.3782 16.3505L49.3727 16.3442L49.3669 16.3381L49.0818 16.0384L49.0807 16.0373ZM65.968 22.1514C65.9679 22.1513 65.9679 22.1512 65.9678 22.1511L65.9679 22.1514L65.968 22.1514Z" fill="#8A919D" stroke="#8A919D"/>
<path d="M44.9487 12.4953L44.9399 12.4889L44.9309 12.4829L44.5443 12.2265L44.5443 12.2265L44.5397 12.2235C44.5035 12.2001 44.4616 12.1807 44.4536 12.1771L44.4525 12.1765C44.4332 12.1675 44.4093 12.1567 44.3825 12.1447C44.3283 12.1206 44.2538 12.0881 44.1621 12.0486C43.9783 11.9694 43.7199 11.8597 43.4056 11.7271C42.7766 11.4617 41.92 11.1036 40.9796 10.7132C39.0998 9.9329 36.8804 9.02192 35.4725 8.46545C35.4038 8.43828 35.336 8.41741 35.2664 8.40106L33.6622 8.02448C33.6187 8.01427 33.5745 8.00723 33.5301 8.0034L33.9364 1.09646C33.9534 0.807717 34.2111 0.593577 34.498 0.629747L39.0549 1.20409C39.1074 1.2107 39.1582 1.2211 39.2126 1.2363C39.6326 1.35356 41.161 1.77206 42.6837 2.189L43.0413 2.2869C43.8588 2.51075 44.6498 2.7274 45.2403 2.88955C45.5356 2.97064 45.7805 3.03802 45.9533 3.08584C46.0399 3.10976 46.1079 3.12866 46.155 3.14187C46.191 3.15199 46.2059 3.15639 46.2085 3.15699C46.3697 3.218 46.52 3.28136 46.6777 3.34783C46.7632 3.38384 46.8508 3.42077 46.9435 3.45873C46.99 3.47827 47.0357 3.49734 47.0806 3.51609C47.2832 3.60072 47.4701 3.67876 47.6498 3.7636L47.6498 3.76363L47.6549 3.76597L48.3382 4.07913L48.3382 4.07914L48.3412 4.0805C48.4789 4.14253 48.6018 4.20438 48.7318 4.26985C48.8031 4.30577 48.8766 4.34278 48.9559 4.38151C48.9567 4.3819 48.9575 4.38229 48.9583 4.38268L49.5251 4.66673L50.0639 4.96037L50.0659 4.96147L50.5435 5.22455L50.7235 5.32642L50.726 5.32784L50.8783 5.41519L50.8783 5.41521L51.0336 5.50427L45.9591 13.234L45.8156 13.127L45.8155 13.1268L45.6728 13.0203L45.6719 13.0196C45.6641 13.0138 45.6549 13.0069 45.6448 12.9994C45.6059 12.9703 45.5541 12.9316 45.5173 12.906L45.2545 12.7178L45.2514 12.7156L44.9487 12.4953ZM51.16 5.57678C51.1599 5.57677 51.1599 5.57675 51.1599 5.57674L51.16 5.57678ZM51.113 5.38319C51.1131 5.38306 51.1132 5.38293 51.1133 5.3828L51.1132 5.38299L51.113 5.38319Z" fill="#8A919D" stroke="#8A919D"/>
<path d="M30.1376 8.43947L30.4624 8.4377L30.1376 8.43947ZM30.1376 8.43947L29.7673 8.4419L30.1376 8.43947ZM26.787 8.16083L26.7841 8.16124L26.1653 8.2467L26.1567 8.24788L26.1482 8.24935L25.5109 8.35998L25.5109 8.35997L25.5078 8.36052C25.4782 8.36585 25.4434 8.37178 25.4061 8.37815C25.3321 8.39078 25.2478 8.40515 25.1732 8.42005L25.1731 8.42002L25.1672 8.42128L24.8417 8.49037L24.8407 8.49057L24.514 8.55935L24.5119 8.55978L24.5039 8.56142C24.3998 8.58288 24.2801 8.60754 24.16 8.63935L23.5013 8.80229L23.5013 8.80228L23.4978 8.80319C23.3538 8.83994 23.2007 8.88409 23.0573 8.92543C22.9772 8.9485 22.9002 8.9707 22.8296 8.99024L22.8296 8.99022L22.8242 8.99176C22.7912 9.00128 22.7543 9.01166 22.7155 9.02258C22.6423 9.04316 22.5625 9.06562 22.4898 9.08767L22.4898 9.08759L22.4811 9.09041L22.1593 9.19448L22.1587 9.19467L21.8397 9.29735C21.8394 9.29744 21.8392 9.29752 21.8389 9.2976C21.829 9.30076 21.819 9.30397 21.8087 9.30724C21.7154 9.33695 21.6078 9.37121 21.502 9.4112L20.8919 9.63112C20.8914 9.6313 20.8909 9.63147 20.8904 9.63164C20.7528 9.68028 20.6049 9.74023 20.4732 9.79355C20.4053 9.8211 20.3416 9.84688 20.2861 9.86841L20.2861 9.86837L20.2806 9.87056C20.2431 9.8856 20.2043 9.90098 20.1646 9.9167C20.0144 9.97626 19.8516 10.0408 19.6982 10.1112L19.175 10.3408C19.0558 10.3917 18.9262 10.4548 18.8164 10.5082C18.7625 10.5344 18.7134 10.5583 18.6726 10.5773L18.6726 10.5773L18.6676 10.5797L18.2176 10.7954L18.2098 10.7992L18.2021 10.8032L17.8036 11.0115L17.8029 11.0119L17.4517 11.1948C17.4517 11.1948 17.4517 11.1948 17.4517 11.1948C17.4516 11.1949 17.4514 11.195 17.4513 11.195C17.3734 11.2356 17.2882 11.2842 17.2218 11.3222C17.1921 11.3392 17.1661 11.354 17.1462 11.365L17.1462 11.365L17.1427 11.3669L16.9849 11.456L14.1442 7.2796L14.3825 7.10369C14.4253 7.07265 14.4639 7.04398 14.5014 7.01613C14.5667 6.96757 14.6287 6.92153 14.7037 6.86979L15.1021 6.59549L15.1027 6.59505L15.3231 6.44379L15.5508 6.28753L16.0577 5.96255C16.1308 5.91673 16.1978 5.87352 16.2625 5.83177C16.377 5.75789 16.4844 5.68856 16.6066 5.61726L16.6067 5.61727L16.6098 5.61539L17.2245 5.25075L17.2245 5.25078L17.2298 5.24752C17.3896 5.15006 17.5559 5.05893 17.7377 4.95935C17.7799 4.93626 17.8229 4.91272 17.8668 4.88854C17.9543 4.84145 18.0361 4.79619 18.1157 4.75219C18.2605 4.67211 18.3977 4.59619 18.5477 4.52102L18.5489 4.52039L19.2798 4.1514L19.2798 4.15143L19.2848 4.1488C19.3876 4.09546 19.4938 4.04633 19.6132 3.99113C19.6225 3.98687 19.6317 3.98257 19.6411 3.97824L19.6413 3.97814L20.0241 3.80086L20.0245 3.80067L20.4074 3.6239C20.4889 3.58786 20.568 3.55458 20.6518 3.51935C20.6962 3.50065 20.742 3.48139 20.7901 3.46088C20.8837 3.4219 20.9738 3.38368 21.062 3.3462C21.2347 3.27292 21.4005 3.2025 21.5733 3.13481L22.3791 2.82723L22.3791 2.82726L22.3843 2.82522C22.5054 2.77743 22.6302 2.73474 22.7672 2.68814L22.7684 2.68772L23.173 2.54905L23.1735 2.54889L23.5731 2.41258C23.6554 2.38552 23.7333 2.36197 23.817 2.33668C23.8633 2.32269 23.9113 2.30815 23.9629 2.2922C23.9635 2.29201 23.9641 2.29183 23.9647 2.29165L24.746 2.05612L25.509 1.85282C25.5096 1.85267 25.5102 1.85251 25.5108 1.85236C25.5631 1.83881 25.61 1.82625 25.6542 1.81441C25.7306 1.79393 25.7989 1.77562 25.8734 1.75816C25.8737 1.75809 25.874 1.75802 25.8743 1.75795L26.2411 1.67361L26.242 1.6734L26.9436 1.51362L27.6031 1.38617L27.6042 1.38595L27.9174 1.32615C27.9176 1.32612 27.9178 1.32609 27.9179 1.32605C27.9391 1.32207 27.9591 1.31824 27.9783 1.31457C28.0606 1.29885 28.1282 1.28594 28.2024 1.27548L28.2024 1.27551L28.208 1.27467L28.798 1.18478L28.8 1.18448L29.3148 1.10816L29.6841 1.06114L29.6845 1.06109L29.8618 1.03871L30.314 7.9385L30.1349 7.93947L30.1343 7.93948L29.764 7.94191V7.94175L29.7515 7.94215L29.4005 7.95327L29.3979 7.95335L29.0024 7.96366C28.9292 7.96409 28.8466 7.96999 28.7842 7.97444C28.7707 7.9754 28.7581 7.9763 28.7467 7.97706L28.7459 7.97711L28.4995 7.99394L28.499 7.99398L27.9735 8.02922L27.9643 8.02984L27.9551 8.03079L27.3946 8.08899L27.3939 8.08906L27.1016 8.11877L27.0994 8.119C27.028 8.12653 26.9444 8.13853 26.8743 8.14859C26.8414 8.15332 26.8114 8.15762 26.787 8.16083ZM14.0379 7.35811L14.0379 7.3581L14.0379 7.35811ZM30.0063 1.02047C30.0063 1.02047 30.0063 1.02047 30.0063 1.02047L30.0063 1.02047Z" fill="#8A919D" stroke="#8A919D"/>
<path d="M6.90603 14.6205L6.90604 14.6205L6.90777 14.618C6.98333 14.5097 7.05662 14.4077 7.1316 14.3109L7.13163 14.3109L7.1353 14.306L7.61375 13.6729C7.61381 13.6728 7.61388 13.6727 7.61394 13.6726C7.71328 13.5416 7.81102 13.4213 7.91331 13.2955C7.96898 13.227 8.02599 13.1568 8.08535 13.0824C8.10424 13.059 8.12291 13.0358 8.14138 13.0129C8.28057 12.8402 8.4087 12.6813 8.54039 12.5323L8.54041 12.5323L8.54429 12.5278L9.00135 11.998L9.00136 11.998L9.00283 11.9962C9.09339 11.8903 9.17933 11.7976 9.2704 11.6995C9.32191 11.6439 9.37505 11.5867 9.4316 11.5242L9.83386 11.0885L10.2244 10.6923L10.2255 10.6912L10.5755 10.338L10.5755 10.338L10.5778 10.3357C10.6131 10.2996 10.6394 10.2743 10.6702 10.2447C10.6836 10.2319 10.6978 10.2182 10.714 10.2026C10.7142 10.2023 10.7145 10.2021 10.7147 10.2018L10.8415 10.0797L10.842 10.0793L10.9708 9.95525L13.9459 13.4407L13.8033 13.5483L13.8028 13.5487L13.6602 13.6563L13.6591 13.6571C13.6511 13.6632 13.641 13.6708 13.6296 13.6793C13.5916 13.7078 13.5391 13.7473 13.4986 13.7805L13.2033 14.0157L13.2026 14.0163L12.8613 14.2865L12.8543 14.2921L12.8474 14.2979L12.4609 14.6271L12.4609 14.6271L12.4571 14.6304C12.4207 14.662 12.3773 14.6987 12.3303 14.7383C12.2351 14.8186 12.1251 14.9114 12.0281 15.001C12.0276 15.0014 12.0272 15.0018 12.0267 15.0022L11.5932 15.3967C11.4537 15.5199 11.3174 15.6528 11.1889 15.778C11.1667 15.7997 11.1447 15.8211 11.123 15.8422L11.123 15.8422L11.1203 15.8448C11.0742 15.8903 11.0221 15.9405 10.967 15.9935C10.8621 16.0946 10.7466 16.2057 10.6428 16.3133C10.6428 16.3133 10.6427 16.3133 10.6427 16.3133L10.1728 16.8C10.084 16.8896 10.0004 16.9809 9.92156 17.0694C9.92113 17.0699 9.92071 17.0704 9.92028 17.0709L9.68761 17.328L9.68744 17.3282L9.44987 17.5903L9.44944 17.5908C9.39226 17.654 9.33096 17.7268 9.27764 17.7902C9.25268 17.8198 9.22947 17.8474 9.20925 17.871L9.20923 17.8709L9.20587 17.8749C9.1541 17.9365 9.0991 18.001 9.04277 18.0671C8.94223 18.185 8.83742 18.308 8.73907 18.428L8.73903 18.428L8.73441 18.4338L8.28769 18.9961L8.28747 18.9964L8.17613 19.1364L8.17095 19.1429L8.16598 19.1496L8.05972 19.2928L8.05951 19.2931L7.8497 19.5755C7.6437 19.8437 7.44885 20.126 7.26604 20.3909C7.18662 20.5059 7.10948 20.6177 7.03468 20.7236L7.02884 20.7319L7.02335 20.7403L6.66115 21.2996L6.66065 21.3003L6.48528 21.5717L6.48103 21.5783L6.47699 21.585L6.31438 21.8549L6.3141 21.8554L6.00112 22.3738L5.99708 22.3805L5.99324 22.3873L5.7155 22.8813L5.71549 22.8813L5.71363 22.8846C5.68674 22.9333 5.65712 22.9858 5.62661 23.0399C5.56847 23.1429 5.50706 23.2517 5.45495 23.3512L5.45394 23.3532L5.23731 23.7714L5.2373 23.7714L5.04596 24.1403L5.04253 24.1469L5.0393 24.1536L4.88655 24.4712L4.88602 24.4723L4.79603 24.6605L2.25763 23.6873L2.34324 23.4332L2.34387 23.4313L2.46876 23.0652L2.62902 22.6356L2.62925 22.6349L2.81449 22.14C2.81463 22.1396 2.81476 22.1392 2.8149 22.1389C2.85546 22.032 2.89813 21.929 2.94508 21.8156C2.9722 21.7501 3.00074 21.6812 3.03112 21.6061L3.27283 21.022L3.55085 20.4026L3.55104 20.4021L3.69517 20.0819L3.85189 19.759L3.85248 19.7578L4.18157 19.0845C4.2532 18.9506 4.32288 18.8179 4.39213 18.686C4.56481 18.357 4.73478 18.0333 4.92555 17.7092L4.92559 17.7092L4.92878 17.7037L5.1317 17.3484L5.13174 17.3483L5.23012 17.1762L5.33339 17.0074L5.3338 17.0067L5.76523 16.3043C5.8613 16.1529 5.95816 16.0065 6.05788 15.8558C6.10861 15.7791 6.16008 15.7013 6.21257 15.6211C6.24441 15.5735 6.27271 15.5303 6.29953 15.4894C6.34531 15.4196 6.38674 15.3564 6.43402 15.2889C6.43416 15.2887 6.4343 15.2885 6.43444 15.2883L6.67034 14.9539L6.67063 14.9535L6.90603 14.6205ZM14.0402 13.5511C14.0401 13.551 14.04 13.551 14.04 13.5509L14.0401 13.5511L14.0402 13.5511Z" fill="#8A919D" stroke="#8A919D"/>
<path d="M2.20653 36.0098C2.2305 36.0093 2.26037 36.0118 2.29218 36.0162C2.23781 36.0168 2.18047 36.0219 2.12817 36.0308C2.15668 36.0214 2.18397 36.0138 2.20653 36.0098ZM1.83531 35.5007L1.77585 36.2461L1.77584 36.2463L1.76227 36.4158C1.76095 36.4242 1.76009 36.4311 1.75955 36.4357L1.75823 36.4486L1.75754 36.4571L1.75689 36.4676L1.75661 36.4738L1.75638 36.481L1.75635 36.4826L1.75425 36.5283L1.75423 36.5287L1.74975 36.6244L1.74974 36.6247L1.732 37.0065L1.73199 37.0068L1.71431 37.3858L1.71416 37.3858L1.71389 37.3982L1.706 37.7565L1.706 37.7568L1.6982 38.111L1.69819 38.1112L1.69428 38.2872L1.69409 38.2872L1.69417 38.3011L1.69528 38.4778L1.69528 38.4779L1.69948 39.1708L1.6993 39.1708L1.69974 39.1842L1.72139 39.8453C1.7256 40.0351 1.73714 40.2209 1.74768 40.3908C1.74978 40.4247 1.75184 40.4578 1.75379 40.4903L1.75379 40.4903L1.75398 40.4932C1.75443 40.5001 1.75488 40.5069 1.75532 40.5137H1.03513C1.03251 40.4995 1.0299 40.4853 1.0273 40.4711C0.994491 40.2926 0.962759 40.1199 0.937078 39.9414L0.937101 39.9414L0.936375 39.9367L0.830587 39.2496L0.739002 38.5292L0.738942 38.5287L0.716234 38.3493L0.697939 38.1658L0.697894 38.1653L0.659955 37.78L0.659922 37.7797L0.622523 37.3949L0.595023 37.022L0.566872 36.6403L0.5598 36.5446L0.559798 36.5446L0.556904 36.5054L0.554738 36.4497L0.554692 36.4486L0.546521 36.2502L0.546513 36.25L0.514077 35.4528L0.51403 35.4516L0.506719 35.2604L0.505519 35.0686L0.505517 35.0682L0.503161 34.6686L0.503159 34.6683L0.500952 34.2701L0.50095 34.2697L0.500033 34.0793L0.505131 33.8916C0.505143 33.8912 0.505154 33.8908 0.505165 33.8905C0.508883 33.7723 0.512116 33.656 0.515304 33.5413C0.52664 33.1333 0.537415 32.7456 0.567478 32.3664L0.56751 32.3664L0.567897 32.3607C0.574115 32.269 0.579662 32.1806 0.585083 32.0943C0.595027 31.9359 0.604545 31.7843 0.616992 31.6311L0.686775 30.9275L0.686824 30.9275L0.687416 30.9206C0.714945 30.5974 0.756426 30.2954 0.79776 29.9945C0.813603 29.8791 0.829424 29.7639 0.844431 29.6478L0.883614 29.3586C0.892336 29.3014 0.901427 29.2489 0.911254 29.1921C0.917052 29.1586 0.923105 29.1237 0.929491 29.0854L1.02002 28.5587C1.03081 28.4975 1.04069 28.4398 1.05007 28.3851C1.0674 28.284 1.08301 28.193 1.09947 28.1084L1.17352 27.7438L1.17357 27.7436L1.20923 27.5681L3.38403 28.148L3.32766 28.3179L3.32752 28.3183L3.2096 28.6734L3.20958 28.6734L3.20834 28.6772C3.18055 28.7632 3.15324 28.8559 3.127 28.9449C3.11324 28.9915 3.09977 29.0372 3.08668 29.0805L3.08667 29.0805L3.08609 29.0824L2.95274 29.5288L2.95274 29.5288L2.95224 29.5305C2.94603 29.5515 2.9386 29.5761 2.93056 29.6027C2.91388 29.6579 2.89458 29.7217 2.87814 29.7808L2.87807 29.7808L2.87587 29.7892L2.80781 30.0516L2.8078 30.0516L2.80699 30.0548C2.78342 30.1481 2.7573 30.2473 2.72998 30.3511C2.65882 30.6215 2.57947 30.923 2.51547 31.2324L2.37371 31.867L2.37363 31.8669L2.3718 31.8759C2.34245 32.0194 2.31452 32.1708 2.2873 32.3183C2.27264 32.3977 2.25819 32.4759 2.24384 32.5513C2.17029 32.9131 2.11403 33.2904 2.05913 33.6586C2.0426 33.7695 2.02619 33.8796 2.00946 33.9881L2.00946 33.9881L2.00912 33.9904L1.98193 34.1725L1.98067 34.1809L1.9797 34.1894L1.95872 34.3725L1.9587 34.3727L1.91637 34.7409L1.91634 34.7412L1.87365 35.1112L1.87364 35.1113L1.8522 35.297L1.85124 35.3054L1.85055 35.3137L1.83537 35.4999L1.83531 35.5007ZM3.42996 28.0096L3.42987 28.0099L3.42996 28.0096Z" fill="#8A919D" stroke="#8A919D"/>
<path d="M21.5358 39.9038L21.5358 39.9038C21.6078 40.9459 21.917 41.9182 22.4079 42.7686C23.6371 44.8976 26.0065 46.2622 28.6286 46.0812C29.1388 46.0461 29.6541 45.9445 30.1124 45.8072L30.1183 45.8054L54.4631 38.3505L63.7344 35.5114L63.7344 35.5114L69.4777 33.7527L69.4777 33.7527C70.1322 33.5523 70.5749 33.0771 70.7546 32.51C70.9243 31.9745 70.8506 31.391 70.5785 30.9198C70.2402 30.3337 69.5914 29.9221 68.7792 29.978L68.7791 29.978L62.5455 30.408L62.6143 31.4057L62.5455 30.408L53.3496 31.0425L27.7132 32.811C24.0488 33.0638 21.283 36.2394 21.5358 39.9038ZM29.9306 38.6674C30.4192 39.5138 30.1293 40.5961 29.2828 41.0848C28.4365 41.5734 27.3541 41.2834 26.8655 40.437C26.3768 39.5907 26.6669 38.5083 27.5132 38.0197C28.3597 37.5309 29.4419 37.821 29.9306 38.6674Z" fill="#8A919D" stroke="white" stroke-width="2"/>
</svg>
