<svg width="70" height="77" viewBox="0 0 70 77" fill="none" xmlns="http://www.w3.org/2000/svg">
<path d="M34.9967 0C15.699 0 0 17.1843 0 38.3079C0 59.4316 15.699 76.616 34.9967 76.616C54.2981 76.616 70 59.4316 70 38.3079C70 17.1843 54.2981 0 34.9967 0ZM2.15087 38.3079C2.15087 18.4827 16.8854 2.35395 34.9967 2.35395C44.4335 2.35395 52.9474 6.73752 58.9453 13.734L12.8128 64.7956C6.26439 58.2186 2.15087 48.7803 2.15087 38.3079ZM34.9967 74.2619C27.2261 74.2619 20.0812 71.2863 14.4504 66.3298L60.3734 15.5015C65.0418 21.7109 67.8491 29.6574 67.8491 38.3079C67.8491 58.1331 53.1116 74.2619 34.9967 74.2619Z" fill="#8A919D"/>
</svg>
