<svg width="70" height="77" viewBox="0 0 70 77" fill="none" xmlns="http://www.w3.org/2000/svg">
<path d="M41.5209 25.9674C41.8899 25.6534 42.3288 26.2653 41.9597 26.5793L29.8708 36.9474C29.3962 37.3506 28.5549 37.4355 27.9851 37.2736L1.0463 29.6178C0.735762 29.5291 0.703804 29.5667 0.721053 29.8828L0.720105 36.348C0.720051 36.7637 0.919831 36.8611 1.27661 36.9625L28.2991 44.6421C28.6435 44.7399 29.2762 44.7065 29.5643 44.4575L41.8862 33.527C42.2535 33.2091 42.3307 34.136 42.3307 34.136L30.0087 45.0664C29.5369 45.4742 28.6893 45.5558 28.1202 45.3941L1.09769 37.7145C0.42159 37.5224 0.00716154 37.1416 0.0072689 36.348L0.0083246 29.2476C0.00839618 28.7551 -0.0809454 28.4114 0.324071 28.0636L12.3563 17.0091C12.7254 16.6931 12.587 16.9605 12.587 17.6824L1.0139 28.4625C0.742847 28.6704 0.651842 28.7324 1.1428 28.8423L28.164 36.5216C28.5104 36.62 29.1411 36.5825 29.4319 36.3355L41.5209 25.9674ZM46.6819 67.1377C47.9624 67.8745 48.7544 68.9184 48.7544 70.0948V72.5307C48.7544 73.7071 47.9624 74.751 46.6819 75.4878C44.0677 76.992 39.8809 76.992 37.2667 75.4878C35.9862 74.751 35.1941 73.7071 35.1941 72.5307V70.0948C35.1941 68.9184 35.9862 67.8745 37.2667 67.1377C39.8809 65.6335 44.0677 65.6335 46.6819 67.1377ZM47.6359 72.3645C47.3609 72.6149 47.0404 72.8456 46.6819 73.0519C44.0677 74.5561 39.8809 74.5561 37.2667 73.0519C36.9082 72.8456 36.5879 72.6151 36.3129 72.3647C35.8439 71.9378 35.9098 71.7535 35.9098 72.5307C35.9098 73.3953 36.5554 74.1991 37.5993 74.7998C40.0029 76.1827 43.9457 76.1827 46.3492 74.7998C47.3931 74.1991 48.0388 73.3953 48.0388 72.5307C48.0388 71.7537 48.1046 71.9378 47.6359 72.3645ZM46.3492 67.8258C43.9457 66.4428 40.0029 66.4428 37.5993 67.8258C36.5554 68.4265 35.9098 69.2302 35.9098 70.0948C35.9098 70.9594 36.5554 71.7631 37.5993 72.3638C40.0029 73.7468 43.9457 73.7468 46.3492 72.3638C47.3931 71.7631 48.0388 70.9593 48.0388 70.0948C48.0388 69.2302 47.3931 68.4265 46.3492 67.8258ZM55.3475 49.3755C56.7257 49.3191 57.8888 49.6589 58.5988 50.9983C58.9453 51.652 59.3167 52.3147 59.6454 52.9761C59.9791 53.6476 59.9973 54.4513 59.7504 55.2987C58.7584 58.7041 54.2418 61.6018 51.0244 61.7335C49.5789 61.7927 48.4147 61.3195 47.8743 60.3001L46.756 58.1905C46.2161 57.1719 46.4224 55.8372 47.1925 54.5028C48.7649 51.7783 52.3952 49.4963 55.3475 49.3755ZM58.6864 52.9858C57.8366 56.4863 53.1337 59.4919 49.9062 59.624C49.4846 59.6412 49.0868 59.6131 48.7217 59.5395C48.1449 59.4232 48.1448 59.2584 48.4921 59.9134C48.8886 60.6614 49.8177 61.0055 50.9993 60.9572C53.9213 60.8376 58.2899 58.0902 59.1031 54.9493C59.2562 54.3581 59.2417 53.8144 59.0305 53.3697C58.9701 53.2424 58.9002 53.1141 58.831 52.9875C58.7105 52.7667 58.7428 52.7535 58.6864 52.9858ZM55.3727 50.1519C52.6551 50.2631 49.2434 52.4095 47.7963 54.9169C47.1674 56.0066 46.9769 57.0551 47.3738 57.8039C47.7703 58.5519 48.6994 58.896 49.881 58.8476C52.7989 58.7282 57.611 55.7395 58.0618 52.462C58.2626 51.0028 57.2837 50.0737 55.3727 50.1519ZM60.8214 54.1245C60.3508 54.1245 60.3508 53.3451 60.8214 53.3451C62.9867 53.3451 67.5334 54.3269 67.5334 57.43V59.8659C67.5334 61.0423 66.7414 62.0862 65.4609 62.823C64.2496 63.52 62.5847 63.951 60.7533 63.951C58.8168 63.951 56.2216 63.4502 54.8216 61.8676C54.4962 61.4991 55.0105 60.9603 55.3359 61.3287C56.5893 62.7456 59.0263 63.1716 60.7533 63.1716C62.4688 63.1716 64.0151 62.7755 65.1282 62.135C66.1721 61.5343 66.8178 60.7305 66.8178 59.8659V59.2798C66.4719 59.6964 66.0116 60.0702 65.4609 60.3871C64.2496 61.0841 62.5847 61.5152 60.7533 61.5152C59.4818 61.5152 58.2071 61.3349 57.0116 60.8478C56.5722 60.6696 56.821 59.9419 57.2604 60.1202C58.3776 60.5753 59.5656 60.7357 60.7533 60.7357C62.4688 60.7357 64.0151 60.3396 65.1282 59.699C66.1721 59.0984 66.8178 58.2946 66.8178 57.43C66.8178 54.8984 62.5192 54.1245 60.8214 54.1245ZM56.3861 27.3146C56.4636 27.2486 56.5757 27.2636 56.6363 27.3481C56.6968 27.4325 56.6831 27.5546 56.6055 27.6205L49.5722 33.3387C49.3877 33.4957 49.1683 33.1897 49.3528 33.0327L56.3861 27.3146ZM56.4797 27.2721L51.835 26.0449C51.608 25.9818 51.696 25.6058 51.9231 25.6689L56.6869 26.9296C56.7722 26.9443 56.8375 27.0249 56.8375 27.122V35.2331C56.8375 36.0093 56.8864 36.5153 56.2748 37.0434L50.6225 41.9245C49.8335 42.644 49.323 42.5177 49.3695 41.2617L49.3528 33.4342L45.8437 32.4313C45.6166 32.3662 45.7075 31.9902 45.9345 32.0553L49.5761 33.0965C49.6597 33.1205 49.7138 33.2052 49.7089 33.2956L49.7259 41.2617C49.7535 42.0382 49.8386 42.1052 50.3731 41.6436L56.0673 36.7263C56.5548 36.3053 56.4797 35.8331 56.4797 35.2331L56.4797 27.2721ZM36.1574 44.4388C36.1574 44.1825 36.5152 44.1825 36.5152 44.4388V52.0477C36.5152 52.304 36.1574 52.304 36.1574 52.0477V44.4388ZM69.9997 16.3095L69.9638 22.6895C69.9573 23.8443 69.7708 24.5451 68.9112 25.2789L57.0151 35.5589C56.646 35.8729 56.2071 35.261 56.5762 34.947L68.4724 24.6669C69.1476 24.0905 69.2458 23.5914 69.2509 22.6865L69.2801 17.5264C69.284 16.8352 69.3975 16.789 68.9106 17.2058L56.9214 27.4867C56.5523 27.8027 56.1107 27.1907 56.4797 26.8747L68.9074 16.2185C69.3714 15.8214 69.4141 15.9204 68.7373 15.7281L62.5768 14.2609C62.1227 14.1328 62.3016 13.3808 62.7557 13.5089L69.2154 15.0611C69.9716 15.276 70.0036 15.6211 69.9997 16.3095ZM49.3688 40.9322C49.736 40.6142 49.5813 41.7422 49.8133 41.5411L37.4026 52.3014C36.9308 52.7093 36.3206 52.8332 35.7515 52.6715L8.49161 44.9495C7.8171 44.7578 7.40106 44.3815 7.4012 43.583L7.40156 39.6811C7.40156 39.1705 8.11438 39.1705 8.11438 39.6811L8.11402 43.583C8.11397 44.0017 8.32466 44.0992 8.67052 44.1975L35.9304 51.9195C36.2748 52.0174 36.6702 51.9415 36.9582 51.6925L49.3688 40.9322ZM48.9146 33.1362C49.2837 32.8222 49.7225 33.4341 49.3535 33.7481L37.2647 44.1825C36.7901 44.5856 35.9488 44.6705 35.379 44.5086L31.9382 43.3985C31.4841 43.2703 31.663 42.5183 32.1171 42.6465L35.5579 43.7566C35.9043 43.8551 36.535 43.8175 36.8258 43.5705L48.9146 33.1362ZM48.9593 19.8665C49.1438 19.7095 49.3632 20.0154 49.1787 20.1724L42.3414 26.1501C42.1568 26.3071 41.9374 26.0011 42.1219 25.8441L48.9593 19.8665ZM49.0858 20.0372C39.5018 17.3454 29.8642 14.7308 20.305 11.9532C19.5752 11.741 19.2636 11.6002 18.6294 12.1045L12.83 16.7159C12.2346 17.1838 12.6619 17.318 13.1509 17.4626L27.6666 21.6585L42.1822 25.8616C42.2658 25.8855 42.3198 25.9702 42.315 26.0607L42.332 34.0268C42.3183 34.7059 42.4045 34.9038 42.9616 34.4238L48.6749 29.49C49.1608 29.0705 49.0858 28.5958 49.0858 27.9982L49.0858 20.0372ZM41.9589 26.1992L13.002 17.8231C12.1772 17.6458 11.7845 17.0669 12.587 16.4288L18.4095 11.799C19.1538 11.2071 19.5305 11.3252 20.3973 11.5772L49.293 19.6946C49.3784 19.7094 49.4436 19.7899 49.4436 19.8871V27.9982C49.4436 28.7678 49.4931 29.2799 48.8851 29.8049L43.1369 34.7688C42.3828 35.3962 41.9208 35.13 41.9756 34.0268L41.9589 26.1992ZM28.7635 36.933C28.7635 36.6767 29.1213 36.6767 29.1213 36.933V45.1774C29.1213 45.4337 28.7635 45.4337 28.7635 45.1774V36.933ZM62.6079 8.86125L62.5699 15.4546C62.5634 16.6094 62.3769 17.3102 61.5173 18.0439L49.4671 28.0016C49.098 28.3156 49.2196 27.2315 49.0282 27.3896L61.0785 17.432C61.7537 16.8556 61.852 16.3565 61.8571 15.4516L61.8854 10.42C61.8902 9.57415 62.0228 9.5376 61.4252 10.0492L49.6203 20.0372C49.2512 20.3531 48.8096 19.7412 49.1787 19.4252L61.3676 9.10854C61.8252 8.72877 61.861 8.65321 61.1821 8.44732L34.4506 0.850465C34.1042 0.751996 33.5881 0.713609 33.1841 1.03658L19.9043 11.5128C19.9043 11.1885 18.7829 11.6572 19.1519 11.3412L32.7424 0.424611C33.3588 -0.0708252 34.061 -0.0631048 34.6295 0.0984573L61.8214 7.82619C62.2051 7.93523 62.6281 8.2349 62.6079 8.86125Z" fill="#8A919D"/>
</svg>
