<svg width="69" height="57" viewBox="0 0 69 57" fill="none" xmlns="http://www.w3.org/2000/svg">
<path d="M46.5465 41.4873C46.8725 41.4304 46.9531 41.9617 46.6272 42.0186L36.8314 43.5295C36.5054 43.5864 36.4248 43.0551 36.7507 42.9982L46.5465 41.4873ZM48.0415 19.3888C48.3675 19.3347 48.4442 19.8661 48.1182 19.9201L37.9797 21.4217C37.6538 21.4758 37.5771 20.9445 37.903 20.8904L48.0415 19.3888ZM47.1516 41.3546C47.2094 41.4123 47.2362 41.4924 47.2311 41.5708L47.1056 50.4693L64.1951 47.4176C64.9598 47.281 65.1711 47.2173 65.1869 46.3241L65.3128 39.2297C65.3101 38.6729 65.3348 38.6394 64.8301 38.7509L47.2237 42.0899C46.5718 42.2036 46.4106 41.1409 47.0625 41.0272L64.6688 37.6883C65.453 37.5502 65.5262 37.3513 65.0099 36.7152L60.947 31.7092L60.9102 34.4672C60.8909 35.9175 60.2155 36.4049 58.9648 36.6293L16.743 44.2024L17.3903 44.988C17.9244 45.6362 18.4566 45.8299 19.2509 45.6867L36.0931 42.755C36.745 42.6385 36.9102 43.7012 36.2583 43.8176L19.4161 46.7494C18.2722 46.9555 17.4074 46.6332 16.639 45.7006L15.5769 44.4116L13.2863 44.8225C12.1474 45.0268 11.2729 44.7132 10.5073 43.7808L6.53219 38.94L6.50513 41.419C6.49595 42.2582 6.56718 42.4694 7.0797 43.0723L17.0527 54.8049C17.5966 55.4448 18.1183 55.6456 18.9172 55.5029L36.6338 52.3392L36.7507 43.4202L34.6744 41.2718C34.4338 41.0291 34.778 40.637 35.0186 40.8796L37.1751 43.1092C37.2322 43.1667 37.2585 43.246 37.2536 43.3237L37.1365 52.2495L46.6028 50.5591L46.7281 41.668L44.4419 39.6285C44.2 39.3872 44.5422 38.9929 44.7841 39.2342L47.1516 41.3546ZM33.4911 32.283L33.3115 40.1384L42.9135 38.4161L42.9706 30.5902L33.4911 32.283ZM32.8077 40.2287L32.9873 32.3729L20.8094 34.5476C19.8714 34.7151 19.0673 34.5411 18.352 33.8554L14.1155 34.62C12.9768 34.8255 12.1112 34.4931 11.3404 33.5755L1.00638 21.2751L1.00438 29.6169C1.00418 30.4647 1.07814 30.6658 1.58485 31.2829L11.2625 43.0682C11.7974 43.7196 12.3261 43.9025 13.1212 43.7599L32.8077 40.2287ZM43.4728 30.5005L43.4157 38.326L58.7996 35.5667C59.5624 35.4298 59.8953 35.3482 59.9072 34.4545L59.9992 27.5494L43.4728 30.5005ZM37.7271 30.4344L37.9812 21.3685L29.6106 11.0526C29.3936 10.7853 29.7732 10.4311 29.9902 10.6984L38.4247 21.093L38.4857 21.2775L38.2315 30.3444L47.8395 28.6286L48.0415 19.6667L43.3153 13.9019C43.097 13.636 43.4746 13.2797 43.6929 13.5456L48.4835 19.3888L48.5454 19.5733L48.3433 28.5387L66.2173 25.3469C66.9821 25.2104 67.1932 25.1466 67.2092 24.2534L67.3345 17.2667C67.3344 16.6948 67.3958 16.682 66.8008 16.7848L48.4515 20.2161C47.7996 20.3298 47.6384 19.2671 48.2902 19.1535L66.6395 15.7222C67.4348 15.5972 67.6117 15.3619 67.0558 14.7652L56.0911 2.99606C54.7817 1.59055 54.5527 1.59543 52.7262 1.9012L36.2841 4.65381L43.6067 13.4741C43.8263 13.7386 43.4506 14.097 43.231 13.8325L35.693 4.75274L26.4248 6.30436L30.2776 11.0526C30.4946 11.3199 30.115 11.6741 29.898 11.4068L25.8376 6.40268L10.018 9.05108C8.49254 9.31358 8.20532 9.5244 9.1957 10.6136L19.4126 23.0128C19.9482 23.6629 20.4787 23.853 21.2751 23.7115L35.0856 21.258C42 20.3606 35.8987 22.207 35.2468 22.3207L21.4364 24.7741C20.2949 24.9769 19.4285 24.6564 18.6613 23.7254L8.52932 11.4292L8.52738 19.342C8.52717 20.1898 8.60116 20.3909 9.10785 21.008L18.7855 32.7933C19.3204 33.4447 19.8493 33.6269 20.6442 33.485L37.7271 30.4344ZM18.1639 46.9785C18.169 46.6249 18.6705 46.6333 18.6654 46.9869L18.6061 55.3869C18.6009 55.7404 18.0994 55.7321 18.1046 55.3785L18.1639 46.9785ZM12.2983 34.8971C12.3022 34.5436 12.8036 34.5498 12.7998 34.9035L12.7405 43.3098C12.7366 43.6633 12.2351 43.6571 12.239 43.3035L12.2983 34.8971ZM19.8161 24.4035C19.8213 24.0499 20.3228 24.0583 20.3176 24.4119L20.3769 32.901C20.3717 33.2545 19.811 33.2546 19.8161 32.901V24.4035ZM68.3622 15.9012L68.2122 24.2703C68.1862 25.7169 67.6336 26.1861 66.3825 26.4095L61.0048 27.3698L60.9685 30.092L65.769 36.0067C66.3519 36.7248 66.3548 37.0426 66.3407 37.8391L66.1899 46.341C66.1642 47.7877 65.6114 48.2569 64.3602 48.4802L19.0824 56.5655C17.9403 56.7695 17.0874 56.4457 16.3092 55.5302L6.33626 43.7976C5.65054 42.9909 5.48997 42.5162 5.50209 41.4064L5.54222 37.7345L0.82957 31.9955C0.160528 31.1807 0.00103596 30.723 0.00129172 29.6169L0.0036441 19.8513C-0.0599378 18.1861 0.710972 18.1181 2.123 17.8703L7.52492 16.9222L7.52671 9.69906C7.59766 8.38086 8.8084 8.16527 9.65 8.02439L52.5728 0.838596C54.7296 0.47752 55.2489 0.568878 56.803 2.23705L67.7677 14.0062C68.4521 14.7409 68.3772 15.068 68.3622 15.9012ZM17.5405 32.9094L8.35266 21.7206C7.68362 20.9058 7.52413 20.4481 7.52439 19.342L7.52472 18.0132L2.28433 18.9329C0.892716 19.1545 0.807267 19.4372 1.67071 20.4553L12.0877 32.8545C12.6315 33.5018 13.146 33.7026 13.9502 33.5574L17.5405 32.9094Z" fill="#8A919D"/>
</svg>
