<svg width="62" height="70" viewBox="0 0 62 70" fill="none" xmlns="http://www.w3.org/2000/svg">
<path d="M41.5667 70C39.6087 70 37.6506 69.9258 35.7519 69.8665C34.0164 69.8072 32.3847 69.7478 30.8865 69.7478C29.3883 69.7478 27.7566 69.8072 26.021 69.8665C24.1223 69.9407 22.1643 70 20.2063 70C15.6227 70 9.89687 69.644 6.29229 66.9294C0.284661 62.4052 -1.55471 54.4988 1.35268 45.8063C1.36752 45.7766 1.36752 45.747 1.38235 45.7173L1.67902 45.0795C4.20074 39.6355 6.20329 35.3338 9.51119 30.8243L9.52602 30.8095C12.5818 26.6264 16.038 21.9093 20.1024 19.4766C19.5684 18.1416 18.5894 16.5247 17.5659 14.8337C15.1331 10.8434 12.6114 6.71964 14.2283 3.58974C15.2963 1.52787 17.9812 0.370841 22.4313 0.0445008C22.817 0.0148335 23.1878 0 23.5438 0C25.6799 0 26.9407 0.519178 28.0533 0.964187C28.9433 1.33503 29.7146 1.64654 30.9013 1.69104C32.088 1.6317 32.8594 1.32019 33.7494 0.964187C34.8619 0.504344 36.1228 0 38.2588 0C38.6148 0 38.9857 0.0148335 39.3713 0.0445008C43.8214 0.370841 46.5063 1.52787 47.5743 3.58974C49.1912 6.71964 46.6695 10.8434 44.2368 14.8337C43.2132 16.5247 42.2194 18.1267 41.7002 19.4766C45.7795 21.9093 49.2357 26.6412 52.2914 30.8243C55.5993 35.3338 57.587 39.6355 60.1236 45.0795L60.4203 45.7173C60.4351 45.747 60.4499 45.7766 60.4499 45.8063C63.3573 54.4988 61.518 62.3903 55.5103 66.9294C51.8613 69.644 46.1503 70 41.5667 70ZM30.8865 68.0271C32.4292 68.0271 34.0757 68.0865 35.8113 68.1458C37.6951 68.22 39.6383 68.2793 41.5667 68.2793C45.8833 68.2793 51.2531 67.9678 54.4423 65.5499C59.8269 61.4855 61.4586 54.3208 58.8182 46.3848L58.5364 45.7915C56.0443 40.4365 54.0863 36.2089 50.8822 31.833C47.7672 27.5758 44.2516 22.74 40.2317 20.6188C39.8757 20.4259 39.6977 20.0106 39.8163 19.6249C40.3058 17.9636 41.5074 16.0055 42.7534 13.9436C44.8449 10.5171 47.2035 6.64548 46.0316 4.37593C45.2751 2.9074 42.9907 2.03221 39.223 1.75037C38.8818 1.7207 38.5555 1.70587 38.244 1.70587C36.4343 1.70587 35.4404 2.10638 34.3724 2.55139C33.4082 2.93706 32.4143 3.35241 30.9161 3.41174C30.8865 3.41174 30.8716 3.41174 30.842 3.41174C29.3289 3.35241 28.3351 2.9519 27.3857 2.55139C26.3325 2.12121 25.3239 1.70587 23.529 1.70587C23.2175 1.70587 22.8911 1.7207 22.55 1.75037C18.7822 2.01738 16.4978 2.9074 15.7413 4.37593C14.5695 6.64548 16.9428 10.5171 19.0196 13.9436C20.2804 16.0055 21.4671 17.9636 21.9715 19.6249C22.0901 20.0106 21.9121 20.4408 21.5561 20.6188C17.551 22.7252 14.0355 27.5461 10.9204 31.8033L10.9056 31.833C7.70149 36.2089 5.72861 40.4365 3.25139 45.7915L2.96955 46.3848C0.329163 54.3208 1.96086 61.4855 7.34548 65.5499C10.5495 67.9678 15.9045 68.2793 20.2211 68.2793C22.1495 68.2793 24.0927 68.2051 25.9765 68.1458C27.6972 68.0865 29.3438 68.0271 30.8865 68.0271Z" fill="#8A919D"/>
<path d="M40.633 20.7227H21.1416C20.6669 20.7227 20.2812 20.337 20.2812 19.8623C20.2812 19.3876 20.6669 19.002 21.1416 19.002H40.633C41.1077 19.002 41.4934 19.3876 41.4934 19.8623C41.4934 20.337 41.0929 20.7227 40.633 20.7227Z" fill="#8A919D"/>
<path d="M31.4658 58.3711C23.3963 58.3711 16.8398 51.8146 16.8398 43.7451C16.8398 35.6756 23.3963 29.1191 31.4658 29.1191C39.5353 29.1191 46.0918 35.6756 46.0918 43.7451C46.0918 51.8146 39.5205 58.3711 31.4658 58.3711ZM31.4658 30.825C24.3457 30.825 18.5605 36.625 18.5605 43.7451C18.5605 50.8653 24.3457 56.6652 31.4658 56.6652C38.586 56.6652 44.3711 50.8653 44.3711 43.7451C44.3711 36.625 38.586 30.825 31.4658 30.825Z" fill="#8A919D"/>
<path d="M31.5246 53.7414C30.3527 53.7414 29.2106 53.4744 28.276 52.9849C27.564 52.6289 26.941 52.0207 26.4218 51.2049C25.9175 50.4187 25.6208 49.4397 25.5466 48.3123C25.517 47.8376 25.873 47.4371 26.3328 47.3926C26.8075 47.363 27.208 47.719 27.2525 48.1788C27.3119 49.0243 27.5195 49.7215 27.8607 50.2704C28.2167 50.8192 28.6172 51.2197 29.0622 51.4422C30.6939 52.2877 33.3491 52.2432 34.699 50.8192C35.3814 50.1072 35.7077 49.2172 35.7077 48.1343C35.7077 47.6596 35.6335 47.1998 35.4704 46.7844C35.2923 46.3691 35.0847 46.0428 34.8028 45.7609L34.788 45.7461C34.4913 45.4494 34.1057 45.1972 33.631 44.9896C32.919 44.6781 32.207 44.4852 31.4653 44.2924C30.3972 44.0106 29.2996 43.7139 28.1129 43.0464C27.386 42.6459 26.7927 42.0673 26.3922 41.3108C25.9917 40.584 25.7988 39.783 25.7988 38.8781C25.7988 37.2909 26.3773 35.9707 27.5195 34.962C28.4392 34.161 29.8336 33.7012 31.3911 33.7012C32.9041 33.7012 34.2837 34.1313 35.1885 34.9027C36.1675 35.7334 36.7609 36.8607 36.9686 38.2699C37.0279 38.7446 36.7015 39.1748 36.2417 39.2341C35.7819 39.2935 35.3369 38.9671 35.2775 38.5073C35.144 37.5134 34.7435 36.7717 34.0908 36.2081C33.4975 35.7037 32.4888 35.407 31.4059 35.407C30.2934 35.407 29.2551 35.7334 28.6617 36.2526C27.8904 36.9201 27.5195 37.7804 27.5195 38.8781C27.5195 39.5011 27.653 40.0203 27.9052 40.495C28.1574 40.9548 28.4985 41.296 28.9584 41.5482C29.9671 42.1118 30.9164 42.364 31.9251 42.631C32.6965 42.8387 33.5123 43.0464 34.343 43.4172C35.0253 43.7139 35.589 44.0847 36.034 44.5446C36.479 44.9896 36.8202 45.5088 37.0872 46.1466C37.0872 46.1614 37.0872 46.1614 37.1021 46.1763C37.3246 46.7844 37.4432 47.452 37.4432 48.1343C37.4432 49.6622 36.9389 50.9675 35.9599 51.9911C34.788 53.2222 33.1415 53.7414 31.5246 53.7414Z" fill="#8A919D"/>
<path d="M31.4502 55.6409C30.9755 55.6409 30.5898 55.2552 30.5898 54.7805V32.7822C30.5898 32.3076 30.9755 31.9219 31.4502 31.9219C31.9249 31.9219 32.3105 32.3076 32.3105 32.7822V54.7953C32.3105 55.2552 31.9249 55.6409 31.4502 55.6409Z" fill="#8A919D"/>
</svg>
